<?xml version="1.0" encoding="UTF-8"?>
<svg version="1.1" viewBox="0 0 2000 2000" width="1280" height="1280" xmlns="http://www.w3.org/2000/svg">
<path transform="translate(179,154)" d="m0 0h1670l10 5 6 9 1 3v1670l-5 10-9 6-3 1h-1670l-10-5-6-9-1-3v-1670l5-10 9-6z" fill="#FBC006"/>
<path transform="translate(764,1285)" d="m0 0h500l5 4v503l-3 3-3 1h-498l-5-3-1-1v-503z" fill="#FDF8C7"/>
<path transform="translate(764,751)" d="m0 0h500l5 4v503l-3 3-3 1h-498l-5-3-1-1v-503z" fill="#FEEB04"/>
<path transform="translate(764,217)" d="m0 0h500l5 4v503l-3 3-3 1h-498l-5-3-1-1v-503z" fill="#FDF8C7"/>
<path transform="translate(1297,1285)" d="m0 0h500l4 2 1 2v503l-3 3-3 1h-498l-5-3-1-2v-501z" fill="#FDF8C7"/>
<path transform="translate(231,1285)" d="m0 0h500l5 5v501l-3 4-3 1h-498l-5-3-1-1v-503l3-3z" fill="#FDF8C7"/>
<path transform="translate(1297,751)" d="m0 0h500l4 2 1 2v503l-3 3-3 1h-498l-5-3-1-2v-501z" fill="#FDF8C7"/>
<path transform="translate(231,751)" d="m0 0h500l5 5v501l-3 4-3 1h-498l-5-3-1-1v-503l3-3z" fill="#FDF8C7"/>
<path transform="translate(1297,217)" d="m0 0h500l4 2 1 2v503l-3 3-3 1h-498l-5-3-1-2v-501z" fill="#FDF8C7"/>
<path transform="translate(231,217)" d="m0 0h500l5 5v501l-3 4-3 1h-498l-5-3-1-1v-503l3-3z" fill="#FDF8C7"/>
<path transform="translate(179,154)" d="m0 0h1670l10 5 6 9 1 3v1670l-5 10-9 6-3 1h-1670l-10-5-6-9-1-3v-1670l5-10 9-6zm18 17-9 3-7 7-3 9 1 10 3 6 8 7 7 2 1 1586-6 1-8 7-3 6-1 10 3 9 7 7 9 3 10-1 6-3 7-8 2-10h1584l2 10 7 8 6 3 10 1 9-3 7-7 3-9-1-10-3-6-8-7-10-2 1-1585 9-3 7-7 3-9-1-10-3-6-8-7-7-2-10 1-6 3-7 8-2 7h-1584l-3-9-7-7-9-3z" fill="#FEDD04"/>
<path transform="translate(197,171)" d="m0 0 10 1 6 3 7 8 2 7h1584l3-9 7-7 9-3 10 1 6 3 7 8 2 7-1 10-3 6-8 7-7 2-1 1585 10 2 8 7 3 6 1 10-3 9-7 7-9 3-10-1-6-3-7-8-2-10h-1584l-2 10-7 8-6 3-10 1-9-3-7-7-3-9 1-10 3-6 8-7 6-1-1-1586-9-3-7-7-3-9 1-10 3-6 8-7zm25 23-4 11-8 7-8 3v1585l12 4 7 8 3 7h1584l5-10 7-6 6-2v-1586l-10-4-7-8-3-9z" fill="#603812"/>
<path transform="translate(179,154)" d="m0 0h1670l10 5 6 9 1 3v1670l-5 10-9 6-3 1h-1670l-10-5-6-9-1-3v-1670l5-10 9-6zm0 4-6 3-6 7-1 3v1670l3 6 7 6 3 1h1670l6-3 6-7 1-3v-1670l-3-6-7-6-3-1z" fill="#603812"/>
<path transform="translate(1297,1285)" d="m0 0h500l4 2 1 2v11l-494 1-1 494h489v1h-498l-5-3-1-2v-501z" fill="#FEE25A"/>
<path transform="translate(1297,751)" d="m0 0h500l4 2 1 2v11l-494 1-1 494h489v1h-498l-5-3-1-2v-501z" fill="#FEE25A"/>
<path transform="translate(764,751)" d="m0 0h500l5 4v503h-1v-492l-492 1-2 3-1 491h490v1h-498l-5-3-1-1v-503z" fill="#FBC006"/>
<path transform="translate(1297,217)" d="m0 0h500l4 2 1 2v11l-494 1-1 494h489v1h-498l-5-3-1-2v-501z" fill="#FEE25A"/>
<path transform="translate(231,1285)" d="m0 0h500l5 5v501h-1v-491l-492 1-2 3-1 491h490v1h-498l-5-3-1-1v-503l3-3z" fill="#FEE25A"/>
<path transform="translate(231,751)" d="m0 0h500l5 5v501h-1v-491l-492 1-2 3-1 491h490v1h-498l-5-3-1-1v-503l3-3z" fill="#FEE25A"/>
<path transform="translate(231,217)" d="m0 0h500l5 5v501h-1v-491l-492 1-2 3-1 491h490v1h-498l-5-3-1-1v-503l3-3z" fill="#FEE25A"/>
<path transform="translate(764,1285)" d="m0 0h500l5 4v11l-492 1-2 1-1 3-1 490h490v1h-498l-5-3-1-1v-503z" fill="#FEE25A"/>
<path transform="translate(764,217)" d="m0 0h500l5 4v11l-492 1-2 1-1 3-1 490h490v1h-498l-5-3-1-1v-503z" fill="#FEE25A"/>
<path transform="translate(762,1282)" d="m0 0h504l5 3 2 5v501l-3 5-4 3h-504l-6-5-1-3v-501l3-6zm2 3-5 4v503l3 3 3 1h498l5-3 1-1v-503l-5-4z" fill="#603813"/>
<path transform="translate(762,748)" d="m0 0h504l5 3 2 5v501l-3 5-4 3h-504l-6-5-1-3v-501l3-6zm2 3-5 4v503l3 3 3 1h498l5-3 1-1v-503l-5-4z" fill="#603813"/>
<path transform="translate(762,214)" d="m0 0h504l5 3 2 5v501l-3 5-4 3h-504l-6-5-1-3v-501l3-6zm2 3-5 4v503l3 3 3 1h498l5-3 1-1v-503l-5-4z" fill="#603813"/>
<path transform="translate(1295,1282)" d="m0 0h505l5 5 1 2v503l-3 5-4 2h-503l-5-3-2-3v-505l4-5zm2 3-5 5v501l3 4 3 1h498l5-3 1-1v-503l-3-3-2-1z" fill="#603813"/>
<path transform="translate(228,1282)" d="m0 0h505l5 4 1 2v505l-4 5-3 1h-503l-5-3-2-4v-503l4-6zm3 3-4 2-1 2v503l3 3 3 1h498l5-3 1-2v-501l-5-5z" fill="#603813"/>
<path transform="translate(1295,748)" d="m0 0h505l5 5 1 2v503l-3 5-4 2h-503l-5-3-2-3v-505l4-5zm2 3-5 5v501l3 4 3 1h498l5-3 1-1v-503l-3-3-2-1z" fill="#603813"/>
<path transform="translate(228,748)" d="m0 0h505l5 4 1 2v505l-4 5-3 1h-503l-5-3-2-4v-503l4-6zm3 3-4 2-1 2v503l3 3 3 1h498l5-3 1-2v-501l-5-5z" fill="#603813"/>
<path transform="translate(1295,214)" d="m0 0h505l5 5 1 2v503l-3 5-4 2h-503l-5-3-2-3v-505l4-5zm2 3-5 5v501l3 4 3 1h498l5-3 1-1v-503l-3-3-2-1z" fill="#603813"/>
<path transform="translate(228,214)" d="m0 0h505l5 4 1 2v505l-4 5-3 1h-503l-5-3-2-4v-503l4-6zm3 3-4 2-1 2v503l3 3 3 1h498l5-3 1-2v-501l-5-5z" fill="#603813"/>
<path transform="translate(1829,1825)" d="m0 0 4 2 8 8-4 4-3 1h-8l-6-3v-3z" fill="#fff"/>
<path transform="translate(201,1825)" d="m0 0 4 2 8 8-4 4-3 1h-8l-6-3v-3z" fill="#fff"/>
<path transform="translate(1843,1811)" d="m0 0 4 4 1 3v8l-3 6h-3l-9-9 2-4z" fill="#fff"/>
<path transform="translate(1816,1811)" d="m0 0 7 6 4 4-2 4-8 8-4-4-1-3v-8l3-6z" fill="#fff"/>
<path transform="translate(215,1811)" d="m0 0 4 4 1 3v8l-3 6h-3l-9-9 2-4z" fill="#fff"/>
<path transform="translate(188,1811)" d="m0 0 7 6 4 4-2 4-8 8-4-4-1-3v-8l3-6z" fill="#fff"/>
<path transform="translate(1826,1804)" d="m0 0h8l6 3v3l-9 9-4-2-8-8 4-4z" fill="#fff"/>
<path transform="translate(198,1804)" d="m0 0h8l6 3v3l-9 9-4-2-8-8 4-4z" fill="#fff"/>
<path transform="translate(1827,196)" d="m0 0 4 2 8 8-4 4-3 1h-8l-6-3v-3z" fill="#fff"/>
<path transform="translate(199,196)" d="m0 0 4 2 8 8-4 4-3 1h-8l-6-3v-3z" fill="#fff"/>
<path transform="translate(1841,182)" d="m0 0 4 4 1 3v8l-3 6h-3l-9-9 2-4z" fill="#fff"/>
<path transform="translate(1814,182)" d="m0 0 7 6 4 4-2 4-8 8-4-4-1-3v-8l3-6z" fill="#fff"/>
<path transform="translate(213,182)" d="m0 0 4 4 1 3v8l-3 6h-3l-9-9 2-4z" fill="#fff"/>
<path transform="translate(186,182)" d="m0 0 7 6 4 4-2 4-8 8-4-4-1-3v-8l3-6z" fill="#fff"/>
<path transform="translate(1824,175)" d="m0 0h8l6 3v3l-9 9-4-2-8-8 4-4z" fill="#fff"/>
<path transform="translate(196,175)" d="m0 0h8l6 3v3l-9 9-4-2-8-8 4-4z" fill="#fff"/>
</svg>
