<?xml version="1.0" encoding="UTF-8"?>
<svg version="1.1" viewBox="0 0 2044 2048" width="1280" height="1280" xmlns="http://www.w3.org/2000/svg">
<path transform="translate(1357,583)" d="m0 0 5 2 1 2 4 2h9l3-2 5 1v-3l11 2h6l-1 5 1 1 3-4 7 1 3 3 3 1v-2l4 2h-2l1 3 8 1v-2h6l3 2v2h3l1 3 2 1-1-5h5l4 5 1 3 3 3 7 1 5 1 7-1 8 7 3 3 5-1 3 4 12 1 5-1 2 2 10 1 3 1h1l-1-2 11 2 4 1v-3l6 2v2l4-1 1-3 4 2 3-2v2l7-2 9 1h4l6 1h5l5 2 2-5 4-1 2 4h6v-4h2l2 4v-3l5-3 6 1 7 1 2-2 4 1 8 3v2l4-2h5v3l6-1 7 2 4 6v2h6v2l9 2 9 7 4 5 6 3 2 3h-3l4 7 6 10v8l-1 4 6 3 1 8h-2l1 7 1 4-1 5 5 4v5l-2 4 5 5-2 4-3 1 4 2v8l4 3v15l-2 5 4 2v11l-4 2 2 6 2 4v8l1 8-6 3-1 3 6 2 1 5-4 2 1 4-1 2 2 1-1 7-3 7 1 7-4-1-5 9h4v3h-2l2 5-3 1 3 4v2l-4 2 1 10-4 3-2 7h2v3h-2l-1 3-4 1-2 6-6 8 3 1 1 9-3 2h-3l-1 5-6 4 2 3-1 5-7 9-2 1-4 7-9 8-2 10-1 1-9 1v8l-6 7 3 1-2 3h-2l-1-7-2 4-3 2 1 9-7 1-6 10-1 6-7 7-8 1-3 7h-2v2h2l-2 5-6 4-5-3-2 5-4 1-7 8-1 2-6-2-5 7-8-1v2h2l-1 2-4 2-9 6-1 7-3 2h-3l-1 4-5 3h-2l2 5-5 6h-2l-1 4-3 5-2-3-3 11-2 5-6 2 1 8-1-2-4 1v3h-2l-2 5-1 2 2 1 2-4h3l-4 13-3-2-1 5-3 6-3 1v2l5 2v5l-5 5 3 4 1 8v9l-2 4 1 11-3 3 3 4-1 11-4 8 4 1 2 5-1 5-1 1 4 2v9l5 10 2 5-1 8 5 3 1 3-3 5 5 1 1 2-1 2v7l1 2 1 13 3 5-2 4v3l3 2 1 13-2 1-1 6-3 3 5 5v2h2l-1 5h-3l1 6v8l3 1-1 4-2 1 5 4-1 8-5 5 6 5v6l-5 5 1 5 4 4-4 3 1 5 3 3-1 11-3 1-1 6-1 7 1 4-3 10-2 6-1 5-3 3h3l-6 18h2l-1 6-2 4 3-1-2 4-3 7h-2l-2 5-2 2-1 7 1 7 2 4-1 15-4 4-2 5 1 4 2 3-2 4-6 4-5 10-1 3h-2l1 4 2 4v8l-2 7h7l1 3-2 4v6l6 10 2 7v6h2l2-5 2 1 4 10v7l2 2 1 7 6-2 4 7 4 4 1 12 5 2 5 4 4 9 7 2v5l4 2 1 4-1 7 5-1 3 2v6l7 3 1 5-1 2 7 1 6 10 6 5 4 5 5 3v9l4 21 1 3-2 5-6 2h-2l-2 6-3 3-9-2-2 4-6 1-5-4h-7l-2 4-2-1 1-4-3 3-2 3h-11l-4 1-8-3-1-1-1 4h-3v-5l-3 4h-7l-4-2-6 1-4-1-1 1h-6l-3-3v-2h-3l-1 3h-6l-4-2v-5l-3 1 1 4-4-1-1-2-1 2-6-2-1-2-1 4-3-1-2-2-5-2-5 1-10-1-1-5-1 4h-3l-1-5-16-4 1 4-9-1-2-1v-2l-6-1-2-2-8-1-1 2-5-1v-3h2v-2h-4v-2l-6-1-1 5h-2v-2l-4-1-5-2v-4l-6 2-5-3v-2l-7 1-2-1v-8l-9 1-1 4-3-1v-2l-5 5-5 7-7 3-5 2-1 3-5 2-3-2v2l-6 2-4 2-9 1-1 4-6 3-3-1 1-2-5 2-1-2-3 1-4 5-4-1h-3l-5-3h-2l-1 3h-9l-5 1-4 6-1 1h-6l-3-4v-2l-4 1-2 7-5 1-5-1-2-3-5 4-11-1-5 8-5-1-6-1v7h-3l-5-2v2l2 1-5 3-4 1 2 4-4 1-5-1-1-3v6l-4 1 2-8-3 2 1 3-2 3-2-2v-3l-11 3-4 3-5-2-4 1-7 3-2 1-4-2h-5l-2-3-5 1-6 1-4-2-7 3-5-3h-2l-1 5-5-2-3-2v2l-6 3 1-4-3 1-1-1h-8l-3-1-8 1-6 6h-6v-4l-4-1v3l3-2v5l-9 1-5 1-4-1-1-2-6 1-2 2-8-1-4-2v2l-4-1-2-1-1 3h-5l-5-3-9 1v2l-5-1-2-3h-3l-2 4h-8l-3-1h-3l-1-4-1 4-6-1-2-3-4-1-5 1-2-2h-12l-4 4-4-1-5-2-1 3-11-1-3-3h-3l-2 3h-6l-2 1-11 1-8 4-6 8-3 2-7-1v2l-9 4-12 2-4 1-2 5v2l-6 4-2 1-6-2-1 4-6 3-5 2-4-3h-6l-1 3-7 4h-5-2l-1 1-7 1h-15v2h-4l-3-5h-3l-2 5-10 1-5-4-1 3-2-4-5 1-2 4-1-3 1-2-8 5-6 1-2-5-2 4 2 1h-3l-3-2h-4-5l-2-3-9 3v-2l-3 1-1-1-1 2h-7l-2-3-7 1-5-2-4 1-4-4h-2l-2 3-5-2h-3l-3 1-8-6-7-1-6-4 1 3h-3v-2l-4 1h-2-3l-5-4-3 1-5-1h-3l-7-3-6-3-3-3v2l-7-1-2-4h2l-2-1v-4l-6 1-3-2 1-2-5 1-3-1-1-3-5-1-3-3-5-1-6-4-2-5-4-1-5 1-5-4v-3h2l-3-4-5-1-3-2v-5l-1-3-4-2-5-5-1-6 1-1v-9l-3-4 4-7 8-4 1-2-3-1 2-5 4-2 7-2 7-7 4-2 6-9 12-6 2 5 5-4v-6h4l2 1h6l3-10v-5h-3-1l-5-2-4-4v-2l2-2v-2l-6-1 3 3v2l-5-2-2-4 1-1h-3l-2-5 1-4h-2l-1 4-2-4-4-3-1-3h-2v2h-3l-3-5-6-5-6-9-6-5-6-4-3-5-5-5-4-1-4-10-5 1-3-3-1-5-4-2-2-6-7-6 1-3-6 1-5-4-3-5-2-13-5-1-2-3 2-1-5-6 1-4-9-4 2-11-5-1-2-5-2-9-3-1-2-5h2l-1-1-5-2-2-3v-5l1-1v-5l-6-2-4-7-1-2-4-2 3-6h-3v-4l-5-1v-2h-4v-5l-7-3-6-5-3-4-12-3-11-6 1-4-4 1-5-2-3-3-19-6-4-2 1-5h-7l-1-3h-3v5l-8-1-5-2-1-3-5-1h-3l-13-3-8-7-4-2v-3h-2l2 5-4-2-7-6 1 3h-6l-2-1-2 1-9-1-8-2-1-4h-7l-1-3-5 1-1-2-4-1v-2h-6l4 2v2l-6-1-2-5-12-2-5 3-6 1-5-2-5-1-4-1v-2h-2l-1 3h-2v-4h-2l1 4-9-2-1-11-6-1-4-2-1-3 3-3h2l-1-3-3-2 2-4 2-3 1-9 3-3 3-1-2-4 1-4 3-1 1-6 5-5 5-1 2-5 3-4h4l2 3h3l3-5 6-2 1-1 7-1 3-1 4 2h3v-7l1-3-3-1-4-8-2-2v-5l-4 2h-3l-4-9-4-4v-3h-4v3l-4-2-3-5-9-11-2-1-1-6 3-5-1-5 4-2 6-4 3-4 6-1 4-1 6 3 10 4 4 2 8 1 5 3 8 3 5 1v-2h-5l-1-3 4 1 7 1 9-2-2-4 4-3-6-1-1-4 2-5v-2l-4-2-1-7v-2l-3-1-1-3 2-1-3-1 1-4 1-3h-7v-3h-2l1-4v-11l-5-3-3-7 1-7 4-7 9-7 9-5h5l2 2 2-3 4 2 2 2 9-1 5 2 1 3 4-2 1 4h2v6l6-3h5l3 3h2l1-2 2 5v3h5l5 3 5 5 9 1v3h6v4h-2l1 3 5 3h6l6 9 5 2 3 3v-2l3-1 11 10 3 7 6 3v6l1 1 9 1 1 9v6h7l2 1 1 6 6 4 3 5 1 10 7 2 2 5 5 2 4 9 3 5 1 8 8 6 1 6 7-1 5 4h4l1-9 1-6 1-3-1-6h-2l-1-13 2-6 3-3-1-7-4-4 1-9 2-7-2-5v-14l2-10 2-9-1-10 2-6-1-1h-3l1-8-1-4 2-6 4-2 1-7-2-2-2-3 2-2 3 2 1-4h-2l-1 2-1-4v-5l4-6-1-1-1 2h-2l2-8-1-4 3-5 4-4-3 2-3-1 4-7 1-3 1-1h-4l2-4v-3l3-6 5-6h2l2-6 8 1 6-3 3-3 7 1 10 5 1 1 1 8h6l1 6 2 5 6 2 2 3v4l3 1-2 2h3l2-2-1 15 3 1v5h4v-2h2l1 2h6l5-1 5 1 4-9 7-6 5-2h2l-1-9 3-3 4 1 5 1 7-5 5 1 5 8 3 9v2l3 1 2 4-1 5h2v-2h3l4 7-1 5h-2v6l5 7v7l6 8 1 6 8-1 11-6 3-6 5-3h3l1-4 2 1v4l4 1 1-5 2-1h9l6 1 1-5 5 4h3l5 2-1 4-2 1-2 6h8l2 1v3h-3l2 5v3l-5 2 2 10-3 3-1 5-2 1-5 10-4 1-3-1-1 7-3 3-6 1-3 9-7 3-5 9-1 5-5 3h-3v3l3 1-1 5h-2v-2h-2l3 4-3 1-4-2-2 1-1 5 1 6-2 4-9 5h-2l-1 8-5 3-11 9-6 3h-2l2 5-3 3-1-1-4 6h-3l-2 2 2 6-6 2h-2l-1 3h-2l2 3v7l-4 6h-9l5 11h7l4 1v2l3-1 1 2-2 2 4 6 8 4 1 4 7 1 4-2 2 2 1-2 6 2 13 1 7-4 7-1 1 3h2l2-4 5-1 6 3h4v-2l4-2 5 1 6 2 2-4h4l-2-1v-2l-2-1 5-1 10 4v-2l8-3 3-1v3l5-2 3 1v-2l-7-1 4-4h4v3l9-4h4v-5l7 2 2-5 7-1v4l13-2 3-7 7-2 4 1 1-3 7 2h1l1-3h6l3-3 7-1 3 1 1-7 1-1h9l2-5 6-1 10-3 4-4v-2l-2-1 3-2 3 1h-2l1 3 8-6 5-5 5-3 2 1 2-4 9-3v-5l6-3 2-2 2-6 4-1v3l4-1v-3h2l1-4 6-4 1-7 1-2-1-3 5-1 3 1 2-5 5-9 5 2 1-12 8-3 5-4 3-6 7-10 4-4-2-2 1-6 6-7v-6l3-3 3-1-1-7 4-1 3-1-4-4 1-4 7-5h2l2-5h-3l1-4 2-6-2-1 5-7 3-3-1-2-1-11-1-4 3 1-1-5 1-1v-10l2-5 4-4-1-3 4-10v-4l2-4 1-9 4-9 4-1v-9l2-7 2-4 2-1 2-6v-4l2-5h-2l1-3 2-1v-5l2-4 1-7-1-5 3-2v3l2-1-3-9v-4l4-3-2-9 5-3 3-4-1-13h4l3 2-2-4v-3l6-3 1-2-6-2 3-4h3l-2-4v-4l2-1v-7l6-5h2v-4l-5-2 2-1v-5l4-5 1 1 1-2h-2l-1-3 1-2h2l-2-3v-5h3l1 4h2l1-4h2l-6-12 4-7-2 1 1-10 1-9 4-9v-5l3-6v-3-4-2l5-3 2-5h-2l1-5 1-2-1-5 5-4 3-7 1-11 4-13 2-4h4v-2l-3 1-3-1 1-3h4l2-6h2v-2l3-1v2h2l-2-4v-5h3l1-2h-2v-2h3v-5l-1-3 4 1-1-3h-2l2-4 5-5 1-5 4-3-1-5 2-1v2h2l2-5 3-10 3-9 11-8 5-5 2-3-8 3 1-3 4-1 4-6h2l2-6 4-1h2l1-4 10-10 1-5 3-1 5 1-1-3 2-2 4 1 1-3 3-1-2-4 5-1 3-3 3-2v-5l8-2 4 2 3-5 2-1v-7l8-4 4-5 2 1-2 3-1 5h3l2-8 4-1 5-7 5-1 4-4 7-1 2-3h6l2-4 9 3-1-8h2v-3l4-1 4 2 5-4 1-2h2l1 2h4v-2l5-3 10-3h2l1-4 1-1h5l5 3 2-6 4-2 3 3 3-5 11-6-1 4h-2v2l9-3 7-7h8l8 1 2 4 6-4h7l3 1h7l5-6 2 1v3l6-1 3-5 6 1 9 3 1-5zm275 41m-102 5m12 0-2 4h3l1-3zm109 0m62 65-1 3 5-1-1-2zm-614 2 3 3v-3zm-103 179m720 3m-726 20m720 4m-735 67m-25 83 1 3zm1 3 1 2zm-5 12m604 22 1 2zm-38 68-1 4 2-4zm-596 19m-518 2m-1 1m1107 19m-1117 55v3l2-2zm-134 1v2l2-1zm-95 13v2h2v-2zm123 9 1 2zm-189 51m18 18 1 2zm453 3 2 4v-3zm-18 19-1 4 3-1v-3zm-442 29v3zm618 22m-6 2m813 39m-1434 3m1433 0m-1365 16m34 7m42 19m124 89m0 4 1 2zm1 3m138 165m1 1m883 62 2 2v-2zm-92 3v2h2v-2zm308 2-2 2v5l4-4-1-3zm-331 8m196 5 2 2v-2zm107 4v2l2-1zm2 0m-372 3m-742 25m537 8v3l2-2zm5 1v3zm-269 43 1 2z" fill="#90695D"/>
<path transform="translate(1693,68)" d="m0 0 17 1 3 5 6 1 5-1 1-3 13 1 10 5v2l9-2 1-1h7l6 2 1 5 2 1v-5l5 2 4 3 3-3 5 1 2 4h6l1 5h2l1-3 4 1 2 3 1 5 2-2 5 1 5 3 1 6 9 5 1 3-1 2 3-1 1 3 8 1 4 7 5-1-1 5h-2v2l4 1v2l3-1 1 2h3v-3h2l3 14 4 2 1-4 2 4 3 2v5l4 1 1 6 7-2-1 6 10 6 3 5 4 7 1 5 4 1 7 13 1 4 2 5 4 2 9 17v7l3 6v2l4-2 3 2v3l-3 1 5 9 6 13 1 6-2 3 6 2v2l-4 2v4l5 2 1 7-1 7-1 5-1 3 3 7v8l-2 8-3 5-1 4 4 1 1 5-2 5-3 4 1 9 3 5v10l-4 4v9l-3 5-3 9-4 4 2 3v6l-3 3-1 7-3 1-2-2v3l-2 1-1 4 4-1v3l-3 2h-3l-2 9-3 4h-2v9l-4 6h-5l-2 4 3-1-1 5h-2l-4 5-4 8-1 7-5 1-5-2-1 4h2l-1 5-5 5-9 5-3 6-6 1-4 1-2 6h-6v6l-11-1v2l-8 5v3l-5 2-3 3h-10l-9 4-1-3-2-1-1 4-2-1-1 2-4-1v2h-4l-1 4h-2v2l-9 2-2 3h-2-1l-4-1-6-2-1 5-3-1v2l-5 1h-9l-3 4h-10l-2 1-3-3v2l-2-1-3-1-1 5-2-1 1-3-3-1-1 4h-2l-1 3-4-4v-2l-6 1-4 5-7 1-6-5-3-1-2 4-3 1-8 1-2-2-6 1-4-3h-9l-2 3h-5l-4-4-2 4h-6l-1-4-2 2h-6l-2-1v-3h-11l-3-1-2-4-4 1-2 3-4-2-2-5-3-1-2 2-1 3-4-2 1-4h-3v2l-4 2h-5l-4-2-4-1-1-2-11-2-5-2-3-2-2 1-2-1v-2l-5-1-9-4 3-5-5-1-6-3-8-1-3-2v-6l-1 1-3 1-4-2-1-6-10-5-5-3-4-3v-3l-4-1 1-3-1-4-4 2h-3l-5-12-6-3-1-3-6-2-5-3-3-8-7-3-2-5-5-5-1-5-1-13-2-3v-7l-3-3 1-6 1-4-3-6v-8l-4-10-1-11 1-2-3-12v-5l2 3-2-8 1-8 2-4-1-7-2-1 1-5 4-9 1-8 5-5 2-5-7-2-2-2 1-6 1-2h3l-2-6 1-3v-6l3-3 1 1-2-10 4-5v-8l4-2-2-6 3-6 4 2v-7l5-3h2l-1-3 1-3-1-6 3-5v-5l8-9 2-6 1-7 4-8 3-1 3-9 6-5v-6l2-4 5-4h2l2-4 4-5 2-4 4-6 4 2 4 1-1-7 9-7 1-2h3v-2h3l1 4 3-5 9-2v-1h-9v-3l9-2v2l4-3 7 1-1-5 7-5h4l2-5h2v5l6-1 5-7 6-2 3-5h3v3l4 1 6-4 4-4 8-2 2 1 2-4h9l1-3 17-4 7 1 5-5 5 1 1 2 4-2 10 1v-2l7-2h17zm35 5m-75 3 1 2zm241 103 1 2 2-1zm-428 13-4 5v5l3-1 1-5 1-4zm470 55m-510 57-1 4 3 3-1-7zm488 167m2 1m-104 82v2h2v-2zm-270 2v3l6 2v-4zm238 9m-204 3 1 2 1-2z" fill="#FCBE09"/>
<path transform="translate(1693,68)" d="m0 0 15 1-5 5-6 5-4 4-8 6-8 5h-2l-1 4 8-1-3 4-6 3-6 14-1 5-7 1-2 2-3 8-6 9-4 8-4 10-5 6-5 14-4 1-1 6-9 9-3 9h3l-2 6-1 7-9 10-3 6h2l-2 11v9l-4 1-3-1v3h2l1 2-1 10-2 4-1 9-3 1 1 3 5 2-2 6-5 5h-2l2 5 5 1v2l-5 5-3 5v8l2 5v8l-3 6v13l3 5-1 4-4 2-1 3 5 1 1 6-6 2 4 23 1 5-3 2v5h5v12l-6 7 1 7 3 4 3 24 4 19 2 14 6 14v4l-6 1 3 1 5 1 1 1v28l-1 3 2 1 5 5-1 11-5 2-2 3-4-2-2-5-3-1-2 2-1 3-4-2 1-4h-3v2l-4 2h-5l-4-2-4-1-1-2-11-2-5-2-3-2-2 1-2-1v-2l-5-1-9-4 3-5-5-1-6-3-8-1-3-2v-6l-1 1-3 1-4-2-1-6-10-5-5-3-4-3v-3l-4-1 1-3-1-4-4 2h-3l-5-12-6-3-1-3-6-2-5-3-3-8-7-3-2-5-5-5-1-5-1-13-2-3v-7l-3-3 1-6 1-4-3-6v-8l-4-10-1-11 1-2-3-12v-5l2 3-2-8 1-8 2-4-1-7-2-1 1-5 4-9 1-8 5-5 2-5-7-2-2-2 1-6 1-2h3l-2-6 1-3v-6l3-3 1 1-2-10 4-5v-8l4-2-2-6 3-6 4 2v-7l5-3h2l-1-3 1-3-1-6 3-5v-5l8-9 2-6 1-7 4-8 3-1 3-9 6-5v-6l2-4 5-4h2l2-4 4-5 2-4 4-6 4 2 4 1-1-7 9-7 1-2h3v-2h3l1 4 3-5 9-2v-1h-9v-3l9-2v2l4-3 7 1-1-5 7-5h4l2-5h2v5l6-1 5-7 6-2 3-5h3v3l4 1 6-4 4-4 8-2 2 1 2-4h9l1-3 17-4 7 1 5-5 5 1 1 2 4-2 10 1v-2l7-2h17zm-40 8 1 2zm-187 116-4 5v5l3-1 1-5 1-4zm-40 112-1 4 3 3-1-7zm116 252v3l6 2v-4zm34 12 1 2 1-2z" fill="#E1091C"/>
<path transform="translate(1769,78)" d="m0 0h2l1 5 2 1v-5l5 2 4 3 3-3 5 1 2 4h6l1 5h2l1-3 4 1 2 3 1 5 2-2 5 1 5 3 1 6 9 5 1 3-1 2 3-1 1 3 8 1 4 7 5-1-1 5h-2v2l4 1v2l3-1 1 2h3v-3h2l3 14 4 2 1-4 2 4 3 2v5l4 1 1 6 7-2-1 6 10 6 3 5 4 7 1 5 4 1 7 13 1 4 2 5 4 2 9 17v7l3 6v2l4-2 3 2v3l-3 1 5 9 6 13 1 6-2 3 6 2v2l-4 2v4l5 2 1 7-1 7-1 5-1 3 3 7v8l-2 8-3 5-1 4 4 1 1 5-2 5-3 4 1 9 3 5v10l-4 4v9l-3 5-3 9-4 4 2 3v6l-3 3-1 7-3 1-2-2v3l-2 1-1 4 4-1v3l-3 2h-3l-2 9-3 4h-2v9l-4 6h-5l-2 4 3-1-1 5h-2l-4 5-4 8-1 7-5 1-5-2-1 4h2l-1 5-5 5-9 5-3 6-6 1-4 1-2 6h-6v6l-11-1v2l-8 5v3l-5 2-3 3h-10l-9 4-1-3-2-1-1 4-2-1-1 2-4-1v2h-4l-1 4h-2v2l-9 2-2 3h-2-1l-4-1-6-2-1 5-3-1v2l-5 1h-9l-3 4h-10l-2 1-3-3v2l-2-1-3-1-1 5-2-1 1-3-3-1-1 4h-2l-1 3-4-4v-2l-6 1-4 5-7 1-1-2 2-5 5-2 2-4 8-4v-6l8-7 8-16 3-3 2-4 5-2v-7l5-4 4-4 3-5 3-1 2-5 8-13-1-6-1-5 2-4h5l4-11 4-2v-2h3l1-9-2-4v-4h8l-2-13v-5l7-7-1-5-1-7 3-7 1-3 1-5h2l-3-7v-5l3-2v-6l-1-2v-6l1-6 2-6-1-5-1-1v-6l7-1-1-5-4-2 1-4 5-5-5-2-1-3 3-1 2-5h2l-1-10-5-4 1-5 2-3 4 1 1-1-2-10v-9l-1-6 4-2-1-5-3-2v-3l5-1-1-7-4-5 1-5 2-3v-8l-1-5 1-6-1-1v-11h2v-3h-4v-2h-2l-2-11v-12l-2-2v-12l2-8-2-5-3-3-3-9-2-4-1-7-3-6-5-4-1-3-1-12-9-8-4-9zm125 101 1 2 2-1zm42 68m-22 224m2 1m-104 82v2h2v-2z" fill="#E1091C"/>
<path transform="translate(1488,1645)" d="m0 0 2 2 7 1 1 3-2 4v6l6 10 2 7v6h2l2-5 2 1 4 10v7l2 2 1 7 6-2 4 7 4 4 1 12 5 2 5 4 4 9 7 2v5l4 2 1 4-1 7 5-1 3 2v6l7 3 1 5-1 2 7 1 6 10 6 5 4 5 5 3v9l4 21 1 3-2 5-6 2h-2l-2 6-3 3-9-2-2 4-6 1-5-4h-7l-2 4-2-1 1-4-3 3-2 3h-11l-4 1-8-3-1-1-1 4h-3v-5l-3 4h-7l-4-2-6 1-4-1-1 1h-6l-3-3v-2h-3l-1 3h-6l-4-2v-5l-3 1 1 4-4-1-1-2-1 2-6-2-1-2-1 4-3-1-2-2-5-2-5 1-10-1-1-5-1 4h-3l-1-5-16-4 1 4-9-1-2-1v-2l-6-1-2-2-8-1-1 2-5-1v-3h2v-2h-4v-2l-6-1-1 5h-2v-2l-4-1-5-2v-4l-6 2-5-3v-2l-7 1-2-1 2-9 10-9 2-3h6l5-6 4-1v-5l5-6 4 1 3-6 4-2 5-5 5-1 3-1 1-2 4-2 3-5-3-1v-5l4-3 5-3 2-3h2l1-5 5 1 4-6 2-2 2-6 1-7 3-3h3v2l-3 3h4v-5l7-9 7-2 3-7 3-2 1-5h4l1-7-2-3 3-3 5-2 2-7 6-3 2-5h-2l2-6 3-5zm-103 183 2 2v-2zm216 5-2 2v5l4-4-1-3zm-135 13 2 2v-2zm107 4v2l2-1z" fill="#674C43"/>
<path transform="translate(800,1594)" d="m0 0 5 1v2l4-1h9l4 2-2 4h-2l-1 6h-3l3 7-12 5h-3v11l-9 6-6 2 4 1h5v2l-7 1v2l-3 1v-2l-6 2-1 4 4-1-2 4-6 1-4 4-4 2v5l-2 2-9 3-2 5h-9v6l-5 1h-5l-2 6-3 1-3 3-1 4-6 1-3 1v-2h-4v3l2 1-5 5-3 1v-2l-3-1v3l-5-1-2 8-7 3h-3l-2 2-7-1-1 4-6 3-5 4-6 1-5-1-4 8-10-1-2 5-3 2-8-1-1 2h2v2h-8l-1 3-5-1-2 4-13 5-3 1-1 6-3 1v-2l-8 1-7 2 1 4-4 4h-10l-7 4-5 1-5 3-4 1-1 3-10 5-5-1-5 2-2 2-1 5-10 4-3 3-10 2-2 2-10 2-4-1-2 1-1 5h2l-1 3-5 1-10 4-4 6-5 5-3 1-2 4h-2v3l5 1 3 5 1 4 10 7v2l3 1 2 3 6 2 1 4 9 1 1 3-2 2 6 4 7 3 3 2v2l6 2 5 3h8l8 5 10 3 4 2 2-1 4 3 13 2 12 4 1 3 7 1 1-3 15 1 4 2 1 2 8 1h26l22 1 13-1h11l3 1 5-2 10 1 20-2 2-2h3v3l11-2 1-1 16-3v-1h-3v-2l4-2 7 1 10-7 1-2h5l5-3 9 1 1-2-3-1 8-5 5-2 3-1h4l1-2-2-1 4-4 5-3 1-2 9-2 9-9 7-1-1-3-5-1v-2l3-1 8 3 4-2v-6l2-2h5v2l6-2 2-3h2v-2h3v-2h5l4-2 1-3 4-3v-2l-3-1v-2l3-1 7 1v-4l2-1 1-3h7l5-2 2-4-3 1-2-2 3-3 5-1 1-3h2v-2l4-1 2-6 7-2-1-4h3l4-1 3-3 1-4h-2v-2l6-1 4-2 4-8 4-2 1-3-5 1 2-3v-2l4-1v2l2-2 4-2 1-4h-3v-2l9-5 2-3h-2v-2l5 2 4-10v-2l7-3 4-10 8-7-1-5 1-3 6-3 1-4h2l1-5 3-4h2l2-5 4-5 2-5 3-2v-9l2-7 3-1 4-6 3-5 1-4v-6l3-8-1-7 4-5v-10l2-3 9-2 5 6h6v13l-4 8 1 7-5 6-3 12h2v2h2l-1 3h-2v-3l-5 5 1 5-3 4v8l-5 3-3 6-5 8h2l-2 6-5 6-1 4-6 2-3 6-3 1 1 7-5 3h-2l-2 5-3 7-4 2-2 5-3 4h-2v2l4-1-2 4-5 2-3 1v2h-2l-4 12-2 2-6 2-2 4h-2l-2 4-5 2-7 10v2h2l-2 5-3 3-4 2-2 4-6 3-4 7-5 2-4 4-8 7-1 5-8 1-8 6-1 2 2 1-6 2v3l-3-1-1-2-5 1-2 4h-2v3l-6 2-4 1v5h-9l-9 6h-2l2 5h-3l2 1v2h-9l-3 3-2 6-11 1-8 4-6 8-3 2-7-1v2l-9 4-12 2-4 1-2 5v2l-6 4-2 1-6-2-1 4-6 3-5 2-4-3h-6l-1 3-7 4h-5-2l-1 1-7 1h-15v2h-4l-3-5h-3l-2 5-10 1-5-4-1 3-2-4-5 1-2 4-1-3 1-2-8 5-6 1-2-5-2 4 2 1h-3l-3-2h-4-5l-2-3-9 3v-2l-3 1-1-1-1 2h-7l-2-3-7 1-5-2-4 1-4-4h-2l-2 3-5-2h-3l-3 1-8-6-7-1-6-4 1 3h-3v-2l-4 1h-2-3l-5-4-3 1-5-1h-3l-7-3-6-3-3-3v2l-7-1-2-4h2l-2-1v-4l-6 1-3-2 1-2-5 1-3-1-1-3-5-1-3-3-5-1-6-4-2-5-4-1-5 1-5-4v-3h2l-3-4-5-1-3-2v-5l-1-3-4-2-5-5-1-6 1-1v-9l-3-4 4-7 8-4 1-2-3-1 2-5 4-2 7-2 7-7 4-2 6-9 12-6 2 5 5-4v-6h4l2 1h6l3-9 7-1 8-5 4-4 12-2 5-1v-2l9-3 10-2 2-5 9-4 4-2h5l2-6 3-3 5-3 4 1 3 1v-2l6-2 3 1 4-5 3-2v-2l4 2 12-6h4l5-5 7-4 2-1 2-4 5 1 2 1 1-3 12-6 7-4 6-5h2v-3l7-1 1-3 6-2 3-3 4 1 2-2 1-5 5-1 2-6 5-2 3-4 7 1 1-2h2l1-3 7-2 2-5 4-2 4 1v-4l6-2v-4l7-4 4-1 3-4h3v-2l-6 1-3-2 3-1 1-2h7v-7l2-2 1-4 3-1 4 1-1-4 1-1h7l1-7zm-339 284m273 52 1 2z" fill="#674D44"/>
<path transform="translate(763,1702)" d="m0 0h2l-2 6 5 1 4 2-1 4 2-1v-2l4 1v2h-2v2l-6 2 2 2v7l-3 5-5 2-3 5-2 3 3 3-3 1-8-1-7 9-1 4h-6l-2 6-4 4 1 4h-4l-3-1-2 6-11 3 1 4-2 3-7 2-7 3h-2l1 5-5 1h-4l-2 3h-6l-3 1v2h-2l-1 3-7 1-2 4-1 1-13 1v2l-7 1-12 1-3 5-5 3h-9l-8 3-8 2h-8l-1-5h4l1-2-7 1-4 5-7 1-3 4h-5l1-3-5-1-4 1h-8l-3-1-12 1-8-4 1-3h2l-2-4v-3h2l-1-4 8-7 4-3 11-2 6-7 8-5h13v-4l-2-1 2-2 10-2 1-4 2-1h9l3-2 1-3 5-2h5v-2l5-2v-3h4l1-2v3l-1 2 6-3 3-3h4l-2-1 1-3 3-1 5 1h3l1-4h2v-2h3l1-3h5l2-3 5-1 7-2 5-2 3 2 2-4 1-1h5v2h2v-3l5-3h23v-2h3l2-6 3-1h5l1-3 5-1 1-4 6-4h3l1-2h9v-3l2 1 1-4z" fill="#AA8679"/>
<path transform="translate(929,1219)" d="m0 0 3 2h5 4l3 5 1 7 5 2-1 3v10l2 6-3 12-3 4-3 15-3 5 2 2-1 6-2 3h-2l4 10-1 5-4 1-1 7-4 10-5 5h-2l2 3-1 6-8 8v6l-8 6-5 9-6 5h-2l-2 4-5 4-3 5-7 2-8 6-6 3-2 5-10 1-4 4-9 1-6 3-12 2h-14l-2 2-4-1-3-5-1-12 2-3 1-5 5-5 1-2h2v-2l10-4 3-5 2-2 8 1v-2h2v-5l6-2 1-4h5l2-6 2-2 8-2-2-4 3-1 4 1v-5l-3-1v-2l2-1 13-2 3-6 5-1 2-10 4-7 3-3 4-2-1-8 5-5 7-13 2-6h2l1-9 5-3 3-11 1-7 4-4 2-9-2-2v-5l2-2 1-7z" fill="#AA8679"/>
<path transform="translate(1273,836)" d="m0 0 4 1 5-1 5 3 2 4 5 1 1-3h7l2-1 6 3 2 4v9h6l5 10h2l1 8 1 3-1 5v3l-4 12-2 2-1 6-2 7-2 6h-2l-1 6-5 5-9 3-4 1v4l-5 5-3 1-3 3-8 1-7 2-5-2-4-2-1-2-9-2-6-2h-3l-1 2-4 1-3-2v-2l-2-1 1-2h-2v-3l-4-2-5-4-1-6v-6h-2v-2h2l-3-6h-1l-1-7-2-2 2-5 1-1 2-14 2-1 5-9 8-9 3-3h2v-2h2l1-4 11-6 2-1 6 1 5-1 1-3 5 3 2-4z" fill="#9D675F"/>
<path transform="translate(1612,820)" d="m0 0 5 3 12 5 5 2 3 4-1 7-1 4 4 2v10h-4v2l-2 2 1 3-1 12 3 2-1 4-5 2v9l-2 7-5 8-5 1v2l4 2-4 2-5 5-4 2-2 5-2 3h-9l-3-1-4 2-1 4-2 3h-6l-4-3-4 1-4 4-9-3-8-4v-2l-4-1 1-2-7 1-8-8-1-5-6-1-2-4-6-3-2-7-9-4v-13l1-2h-3v-2h6l2-10 1-1h14l5 2 2-1 2 2-4 7 10 1 1 3-1 3 4 1 1 2v6l3-3h8l3 7h8l7 4h8l-1-4 10-7 1-4 2-1v-3l4 1v-6l-3-2v-6l2-1v-5l-1-2h3l-2-5 3-8h-5v-4l2-1v-3l-3-3 4-9 3-1 2-4z" fill="#664C43"/>
<path transform="translate(1445,758)" d="m0 0h14l3 10 3 5v4l-7 3-2 3h2v3l6 1 8-5 3-7 5 1 3 2v2h5v7l-4 12-11 5-1 2-8 2-1 4-8 3 2 5-4 3h-2v-2l-2 1v3l-5 6-5 1-4 2-2 5-1 1h-8l-1 2 2 1-2 6h-4v-2l-3-1v5l1 2-2 6-9 2h-4v8l-3 7-2 2-5-1h-7l-1 1h-5l-2-2 2-13h2l1-6-1-2h4l1-6 3-2h4l1-6 9-1-1-11 7-4 5-3h2v-6h5l4-8 6-2 3-5 4-3 1-4 7-2 1 1h5l2-2v-5l-7-3h-10l-2 6-6 1-4 1-2 3-5 1-3 1v2l-6 2-4 3-6-1-3 3-5 3v4l-7 2-6 5-7 1v4l-6 3-7 1 1 5-5 2-1-3-9-2v-2h2v-5l-2-1-2-4 1-5 6-4 7-1-1-6 7 1 6-4v-4l6-4 2-2 9-1 8-4-1-4 6-4 14-6 5-1 1 1h5l9-4 8-2 3-5z" fill="#664C43"/>
<path transform="translate(1172,671)" d="m0 0 4 1 2 1v2l5 1 3 8 2 10-2 4-1 7-9 17-6 3h-2l-2 6-5 3-2 6-5 1-6 4-2 8h-8l-2 5-7 1-3 4h-6l1 1v3l-4 1-3-2h-9l-8-3-3-2v-6l-2-5v-3l-5-1-1-4 1-5 5-3h6l1-4 3-5 1-5 4-4h3l2-4h5l1-5 7-6 3-1 1-3 5-3-2-1 1-5 5 1 6-2 2-6 6-3 6 1 2-4 3-1 6 1z" fill="#AC9087"/>
<path transform="translate(747,1427)" d="m0 0h14l-1 5-4 7v6l-1 5-5 5-5 2 1 6-9 4-2 3h-3l-2-3h-5v6l-2 2-7-1-6 8-6 1-5 1-4 2-1 4-10 1-5 2h-8l-6 1h-8l-7-3-2-3-8-1-1-2-9-2 1-9 4-2 1-6 4-1 4 1 1-5 1-2 8 1 4 1 6-3 2-3 8-1 1-4 3-1 5-1h3l9 2h4l2-5 5-3 3-6 5 1 6 2 4 1 2-3 7-1 2-4 7 1h4l-1-4z" fill="#AA8679"/>
<path transform="translate(1495,807)" d="m0 0h4l5 9 3 2-1 3-3 3v6l-4 2-1 3-4 1v5l-10 15-5 3-4 7-5 5-2 3v5l-5 6h-2v5l-6 3 1 4-4 4-5 2-2 5 1 2-6 3-4 10-6 3-5 5-10-2-1-6h2v-6l1-4-6-1 2-4 12-6 5-5h2v-5l-2-3 5-6 3-6 5-3v-6l4-2 2-4 3-8 4-3 1-3h2l1-4 7-6 5-10 1-3 3-2 5-1-1-6 5-2v-2l6-4z" fill="#664C43"/>
<path transform="translate(857,1621)" d="m0 0 7 1 8 3 2 4-4 1v2h2l3 3 1 10-6 2-2-1v5l-1 3 2 1-1 5-6 3h-2l-2 6-1 1h-6l1 3h-3v-2l-5 2-2 5-5 4-10-1-8-2-3-3-1-5-4-1-3-7-1-10 4-6 3-3 3-5h6l4 1 7-3h6v-2h-3v-2l-2-1 4-4 3-1 2-4 5 1 3 1 3-1z" fill="#AA8679"/>
<path transform="translate(1084,877)" d="m0 0h2l1 4 12-2 3 3v5l-5 5-6 5-2 4-3 3v2h-2v4l-5 2-8-1-3 7h9l5-1 1 2 9 3 1 3h7l7 3 2 2v5l2 1v2 4l-6 2-1 5-8 1h-9v-2l7-1 1-2-2 1h-6l-5-3h-5l-5-6h-12l-5-5-6-3-4-3-1-6 6 3-2-10-1-4 6-7h3v-4h-3l2-4 4-3 12-3 5-5 4-1z" fill="#664C43"/>
<path transform="translate(1629,658)" d="m0 0 5 1v2l4 1 1 3h7l2 6v13l-8 4-3 1-4 9-2 2-7 1-2 5-4 3-9-2-3 4-8 1-4-1-2-2-1-5v-4l-5-3-3-2v-5l9-6 4-8 4-2h3l2-4 14-7z" fill="#664C43"/>
<path transform="translate(1269,745)" d="m0 0 5 1 5 4 3 1v-3h8l4 10 7 5-2 8h2v7l-3 9-3 6-4 3-8-1-1-3h-2l-1 6-6-2-8-4-3-1-1 4-4-2-2-8 1-5-2-6-3-1 2-4-1-10h2l2-10h6l4-3z" fill="#664C43"/>
<path transform="translate(435,1409)" d="m0 0h5l5 1v4l2-3 11 3 1 4-1 2h5l3-2 5 1 1 5 2 1v2l5-3 4 1v-2l4 2h5l10 4-1 2 10 2 7 1v2l3-1 1 2-2 2 3 4-1 5-4 3-9 3h-6l-4-2-1-3-4-1-15 3 2-4v-2l-5 2-5-1-4-1-5-1v-3h-7l-1-3-4-1-2-2-7-2-4-4-5-3-2-5v-3l6-1v-3l-2-1z" fill="#664C43"/>
<path transform="translate(1239,627)" d="m0 0 16 2 4 5 1 4 2 1-1 5v10l1 4-2 2h-9l-4 5-2 1-1 6-7 1-5-2-10 1-5 1-5-4-2-1 1-4-5 1-1 2-1-5-1-9 5-1-1-5 1-2 9-3h4l2-4 3-4 5-1 1-4z" fill="#AC9086"/>
<path transform="translate(1421,669)" d="m0 0 15 1 12-1 3 12 4 5 2 7 1 1v6l-5 5-5 4-8 1-5-3h-10l-1 4-5-1-5-2-2-7 3-3-4-4 1-10-1-1v-6l9-6z" fill="#664C43"/>
<path transform="translate(652,1767)" d="m0 0h7l4 5-1 2 5-2v-2l2 1-1 2 7-3 2 1-1 6-5-2-1 2h-3l-3 5-4 1-2 5h-3v2l-3 2 2 1v2h-2l-1 3-3-3v-2h2v-2h-8v-2l-7 1-1 10-4 2v4h5l3 2 1-5h5l1-3h3l-2 5-4 1 1 5 2 2h-3l1 3-6-1-1 2h-6v-2l-6-2 1-3h-2l-2-4-4 2h-6l-1-4 10-2 3-2h2l-3-5 3-3 4 1v-2h2v-6h4l4 1 1-3 3-2 2-4 1 1v-3h-3l-1-2-1 6-4 1 1-4h2l1-5 3-1 3 3 2-4 2 1z" fill="#AC9087"/>
<path transform="translate(581,1802)" d="m0 0h6l3 1v3l3 1-1 2-4 1v-2l-4 4 1 2h3l2 4-1 2h2v2l3-2h3v2l5-1v3l-8 1h-10l-3 4-4-1-5 2-4 1h-7l-2-1v-2l6-1-1-3 1-2-2-1 2-2 2 2 1-4 2 1v3l-1 3h3v-3l2-1v-4-2l-8-1v-3l-2-1 4-1 3 1 6-5h3z" fill="#AC9087"/>
<path transform="translate(842,1667)" d="m0 0 5 2-2 1-2 7-6 5-10-1-8-2-3-3v-4h5l-1 2 9 2 4 3 3-1 2 1v-3h2l1-4-2-1z" fill="#AC8D83"/>
<path transform="translate(355,1580)" d="m0 0 4 5 1 6 4 1 1 11-4-1-2-5h2l-1-1-5-2-2-3v-5zm7 13m0 4 1 2z" fill="#AB8B81"/>
<path transform="translate(1239,627)" d="m0 0 16 2v3l-5-1h-6l-5-1-1 2 3 1v2l-3 1h-11l-3 2 2-4 5-1 1-4z" fill="#AA8679"/>
<path transform="translate(1502,1187)" d="m0 0 1 3 3 3 1 8v9l-2 2-2-6 1-6-2-1v-2h-2l1-9z" fill="#A9897E"/>
<path transform="translate(667,1753)" d="m0 0 2 1v2l3 2-1 7-4 1-3-1 1 3h-3l-3-3 4-3v-2l2-1z" fill="#AC9087"/>
<path transform="translate(818,1395)" d="m0 0 4 1-1 5-5 5-5 1-3-2 5-3 2-3 1-3z" fill="#AD9188"/>
<path transform="translate(551,1359)" d="m0 0h2l1 4-1 3 2 1-5 2-4 4-3 1-1-5 2-1v3l2-1 1-3h-2v-2l5-2z" fill="#A9887D"/>
<path transform="translate(642,1759)" d="m0 0h10l-1 2-5 1-1 2h3v-2l3 1h-2l-2 5-5 1-2 3h-2v-4l6-1-4-4z" fill="#AD9188"/>
<path transform="translate(613,1787)" d="m0 0 4 1 2 1v2h-2v3l-7 2v-2h-2l2-5z" fill="#AD9188"/>
<path transform="translate(718,1414)" d="m0 0 6 1v5h-3v3h-2v-2h-2v2l-3-1-2-5 3-1 3 3-1-3z" fill="#A8897F"/>
<path transform="translate(233,1502)" d="m0 0 10 2v2h2l2-2v5l-8-1-5-2z" fill="#AA8B81"/>
<path transform="translate(1243,666)" d="m0 0h1v6l-7 1-5-4 1-1z" fill="#AA877B"/>
<path transform="translate(1080,712)" d="m0 0 2 2-3 3h5v3l-7 2-4-2-2 2 1-4 4-1h2l1-4z" fill="#AA8A80"/>
<path transform="translate(620,1773)" d="m0 0h3v2h2l1 4-2 2-7-1 2-6z" fill="#AC9087"/>
<path transform="translate(148,1475)" d="m0 0h8l7 2 1 3-2 3v-3h-7l-1-3-5 1z" fill="#AA8A7F"/>
<path transform="translate(915,1169)" d="m0 0 2 4 1 5-7 2v-5l2-5z" fill="#A7867B"/>
<path transform="translate(157,1256)" d="m0 0h1l2 10 2 3v3l2 1h-7v-3h-2zm1 11v2h2v-2z" fill="#AC8E84"/>
<path transform="translate(817,1639)" d="m0 0 5 1 2 2-5 3-2 3h-3l1-6z" fill="#AC8E85"/>
<path transform="translate(1527,1458)" d="m0 0 4 2 1 1v7l-4 1 1-5h-3v-5z" fill="#A9897E"/>
<path transform="translate(906,1304)" d="m0 0 2 1 1 4-7 4-1-6 1-2z" fill="#AD9188"/>
<path transform="translate(389,1220)" d="m0 0 1 2 3 1-1 9-2 1-2-2-2-3 2-2 3 2 1-4h-2l-1 2-1-4z" fill="#AB8C82"/>
<path transform="translate(1540,626)" d="m0 0 6 2v2l4-1 1-3 1 2-1 3h-6v2h-2l-1-3-3 3-1-4h2z" fill="#AA8C82"/>
<path transform="translate(1e3 1885)" d="m0 0h2v3l3-2v5l-9 1h-2l2-4 2 1v-3z" fill="#A9897E"/>
<path transform="translate(1515,1151)" d="m0 0 2 1-4 13-4-2 2-4v-1l-1-2h2l2-4z" fill="#AA8A7F"/>
<path transform="translate(497,1761)" d="m0 0h2v2l5 2v5l-5-2-4-4v-2z" fill="#AB8B80"/>
<path transform="translate(662,1788)" d="m0 0 2 1-4 2v2l3 1-2 2-3 1-1 2-4-2 3-2-1-1 1-2h3v-2z" fill="#AC9087"/>
<path transform="translate(339,1343)" d="m0 0 4 2 1 4 3 1v1h-6l-4-5v-2z" fill="#A9887D"/>
<path transform="translate(724,1445)" d="m0 0h6l4 2v2h-6l-4 1-2-3z" fill="#AD9188"/>
<path transform="translate(165,1275)" d="m0 0 2 4 2 6-4 1-2-4 2-1-3-1 1-4z" fill="#AC9086"/>
<path transform="translate(983,915)" d="m0 0h1l1 13v7l-3 2v-3l-1-3 1-7z" fill="#A8887D"/>
<path transform="translate(1141,1874)" d="m0 0 9 2v4h-7z" fill="#A58479"/>
<path transform="translate(1523,1373)" d="m0 0h3l3 5 2 1-1 5h-3l-2 2 1-9z" fill="#A8897F"/>
<path transform="translate(384,1251)" d="m0 0 4 2-1 2 3-1-1 7-2-2-4 1z" fill="#AC8F85"/>
<path transform="translate(642,1770)" d="m0 0h2l2 5h-3l-1-2-1 6-4 1 1-4h2l1-5z" fill="#AD9188"/>
<path transform="translate(100,1467)" d="m0 0 9 1 4 2-1 3-9-2-3-2z" fill="#AB8B80"/>
<path transform="translate(991,891)" d="m0 0 2 1-2 9-2 5-2-2 1-4 2-5v-3z" fill="#AA8A7F"/>
<path transform="translate(597,1799)" d="m0 0h4v6h-5l-2-4z" fill="#AD9188"/>
<path transform="translate(354,1585)" d="m0 0 3 1 1 9-3-1-2-3v-5z" fill="#9E7A6F"/>
<path transform="translate(508,1910)" d="m0 0 7 1 4 2h-2v2l-7-1z" fill="#927065"/>
<path transform="translate(1602,1831)" d="m0 0 3 3-2 7-5 1v-5l2 2 2-5z" fill="#9F7C71"/>
<path transform="translate(842,1667)" d="m0 0 5 2-2 1-2 4-3 2 1-4-2-1z" fill="#AC9087"/>
<path transform="translate(93,1462)" d="m0 0h5v2h-2l1 3h-2l-1 3h-2v-4l-2-1z" fill="#A8867B"/>
<path transform="translate(705,1444)" d="m0 0h5l2 5-3 1-5-2z" fill="#AD9188"/>
<path transform="translate(618,1441)" d="m0 0h5l3 3h-2v4l-4-1 1-1-2-1v-2l-2-1z" fill="#A38176"/>
<path transform="translate(943,1083)" d="m0 0h1v5l-1 1v8l-2 1-2-4 2-4h-2l1-3 2-1z" fill="#AB8D82"/>
<path transform="translate(1266,596)" d="m0 0 1 3-3 1v2l2 2h-5l-4-3 6-3z" fill="#AB8C82"/>
<path transform="translate(1393,587)" d="m0 0h8l-1 5 2 3-4-1v-3l-3-1-2-1z" fill="#AB8C82"/>
<path transform="translate(195,1484)" d="m0 0 5 2-2 1 2 5-4-2-4-3v-2z" fill="#AC8D83"/>
<path transform="translate(579,1330)" d="m0 0h3l-1 5h-2v-2h-2l3 4-3 1-3-3 2-3h3z" fill="#AC8E84"/>
<path transform="translate(946,1063)" d="m0 0 1 3 4-1v3h-2l-1 3-4-2 1-5z" fill="#AC8D83"/>
<path transform="translate(974,969)" d="m0 0 3 2-3 1 2 3-1 4-5-2 2-1v-5z" fill="#AA8B80"/>
<path transform="translate(109,1344)" d="m0 0 3 1 1 3h-4v3l-4-2v-3zm1 1 1 2z" fill="#AA8B80"/>
<path transform="translate(936,1282)" d="m0 0h5l-2 1-1 4-5 1-1-4z" fill="#AD9188"/>
<path transform="translate(1030,787)" d="m0 0 1 2-1 8-3 1-2-4 4 1-1-3h-2l2-4z" fill="#A68479"/>
<path transform="translate(1525,626)" d="m0 0 8 2-3 5-5-1 1-2z" fill="#AC8E84"/>
<path transform="translate(611,1810)" d="m0 0 3 1-4 4v3h-4l1-5h2v-2z" fill="#AD9188"/>
<path transform="translate(185,1481)" d="m0 0 4 2v2l1 2h-6l-3-1 1-3h3z" fill="#AC8E84"/>
<path transform="translate(801,1405)" d="m0 0h6l1 2-3 3-6-1v-2h2z" fill="#AD9188"/>
<path transform="translate(1104,691)" d="m0 0 3 1h-2v4h-2l-1 3v-3l-4 2-1-3 2-2 4 1z" fill="#A8887D"/>
<path transform="translate(674,1770)" d="m0 0 3 1-1 6-5-2v-3z" fill="#AD9188"/>
<path transform="translate(1353,585)" d="m0 0 4 3v2h-3v3h-2v-2l-3-1h3z" fill="#A8887D"/>
<path transform="translate(488,1753)" d="m0 0 5 2-2 2 3 3v2l-5-2-2-4h2z" fill="#AC8E84"/>
<path transform="translate(293,1524)" d="m0 0 8 5-3 1h-4l-3-3z" fill="#AA897D"/>
<path transform="translate(177,1308)" d="m0 0h2v5l-2 2-2 3-2-2h2l-2-4 4-3z" fill="#AB8C82"/>
<path transform="translate(1133,688)" d="m0 0 8 1-3 3h-2l-1 2-3-1z" fill="#AA8679"/>
<path transform="translate(1258,634)" d="m0 0 2 4 2 1-1 5-4-2-1-4z" fill="#AA8679"/>
<path transform="translate(1443,232)" d="m0 0 3 1v5l-4-2z" fill="#E73118"/>
<path transform="translate(382,1338)" d="m0 0 3 1-2 5-2-1z" fill="#A7887E"/>
<path transform="translate(1528,1368)" d="m0 0 2 1-1 2 2 1-5 1z" fill="#A8897F"/>
<path transform="translate(542,1192)" d="m0 0 2 1v2l3 1v2l-4-2z" fill="#AC8D83"/>
<path transform="translate(1420,407)" d="m0 0 2 2v5h-2z" fill="#EC5414"/>
<path transform="translate(382,1367)" d="m0 0h2v6l-2-1z" fill="#AD9188"/>
<path transform="translate(476,1746)" d="m0 0 3 1-1 3-3-1z" fill="#A8887D"/>
<path transform="translate(676,1937)" d="m0 0 3 1-1 2h-3z" fill="#A58479"/>
<path transform="translate(1529,1363)" d="m0 0 3 1v3h-2z" fill="#AC8E84"/>
<path transform="translate(518,1174)" d="m0 0 2 4-2 1-1-3z" fill="#A28277"/>
<path transform="translate(1679,638)" d="m0 0h6l-3 2-3-1z" fill="#AD9188"/>
<path transform="translate(1245,1847)" d="m0 0h2v2l-4 1z" fill="#A4857B"/>
<path transform="translate(1842,546)" d="m0 0v3l-2 1v-3z" fill="#DD3427"/>
<path transform="translate(795,1912)" d="m0 0 1 2-4 1z" fill="#A88A80"/>
<path transform="translate(478,1751)" d="m0 0 4 2h-3z" fill="#AB8B80"/>
<path transform="translate(999,852)" d="m0 0 1 4h-2z" fill="#AC8F85"/>
<path transform="translate(1673,632)" d="m0 0 2 3-1 2z" fill="#AC8F85"/>
<path transform="translate(1061,1883)" d="m0 0 2 1v2h-2z" fill="#AD9188"/>
<path transform="translate(1153,1875)" d="m0 0h2l-1 3z" fill="#A6867C"/>
<path transform="translate(1182,1859)" d="m0 0 2 3-3-1z" fill="#A68479"/>
<path transform="translate(1195,1856)" d="m0 0 1 3h-2z" fill="#AD9188"/>
<path transform="translate(1510,1566)" d="m0 0 1 3h-2z" fill="#AC8E85"/>
<path transform="translate(612,1443)" d="m0 0h3v2l-3-1z" fill="#AD9188"/>
<path transform="translate(382,1281)" d="m0 0 2 1v2h-2z" fill="#AD9188"/>
<path transform="translate(1600,1061)" d="m0 0v3l-2-1z" fill="#AD9188"/>
<path transform="translate(1601,1059)" d="m0 0 3 1-3 1z" fill="#AD9188"/>
<path transform="translate(1705,920)" d="m0 0h2v2l-3-1z" fill="#AB8C82"/>
<path transform="translate(1018,804)" d="m0 0h3v2l-3-1z" fill="#A18176"/>
<path transform="translate(1126,1881)" d="m0 0 2 1h-3z" fill="#AC8E84"/>
<path transform="translate(681,1422)" d="m0 0h2v2h-2z" fill="#A5877D"/>
<path transform="translate(1517,1147)" d="m0 0 1 2-3-1z" fill="#AD9188"/>
<path transform="translate(642,1941)" d="m0 0 3 1z" fill="#AC8D83"/>
<path transform="translate(1185,1860)" d="m0 0 2 1-2 1z" fill="#A38379"/>
<path transform="translate(249,1507)" d="m0 0" fill="#AD9188"/>
<path transform="translate(132,1473)" d="m0 0 1 2-2-1z" fill="#AD9188"/>
<path transform="translate(359,1372)" d="m0 0h2l-1 2z" fill="#AD9188"/>
<path transform="translate(208,1225)" d="m0 0" fill="#AD9188"/>
<path transform="translate(1530,1125)" d="m0 0 2 1-2 1z" fill="#AD9188"/>
<path transform="translate(1457,606)" d="m0 0 3 1z" fill="#AD9188"/>
<path transform="translate(1440,597)" d="m0 0h2l-1 2z" fill="#AD9188"/>
<path transform="translate(1731,581)" d="m0 0 3 1z" fill="#F3820F"/>
<path transform="translate(1499,534)" d="m0 0 3 1z" fill="#F3820F"/>
<path transform="translate(1894,504)" d="m0 0 2 1-2 1z" fill="#E1AC2E"/>
<path transform="translate(1421,415)" d="m0 0h2l-1 2z" fill="#FDBF09"/>
<path transform="translate(895,1888)" d="m0 0 2 1z" fill="#AD9188"/>
<path transform="translate(1231,1850)" d="m0 0 2 1z" fill="#AD9188"/>
<path transform="translate(455,1807)" d="m0 0" fill="#AB8B80"/>
<path transform="translate(1565,1762)" d="m0 0 2 1z" fill="#AB8B80"/>
<path transform="translate(1519,1531)" d="m0 0" fill="#AD9188"/>
<path transform="translate(255,1508)" d="m0 0 2 1z" fill="#AD9188"/>
<path transform="translate(583,1327)" d="m0 0 2 1z" fill="#AD9188"/>
<path transform="translate(491,1200)" d="m0 0" fill="#AD9188"/>
<path transform="translate(1529,1127)" d="m0 0" fill="#AD9188"/>
<path transform="translate(1595,1065)" d="m0 0 2 1z" fill="#AD9188"/>
<path transform="translate(1707,918)" d="m0 0" fill="#AD9188"/>
<path transform="translate(1414,591)" d="m0 0 2 1z" fill="#AD9188"/>
<path transform="translate(1808,559)" d="m0 0 2 1z" fill="#C5474B"/>
<path transform="translate(1545,557)" d="m0 0" fill="#FDBF09"/>
<path transform="translate(796,1911)" d="m0 0" fill="#AD9188"/>
<path transform="translate(948,1891)" d="m0 0" fill="#AD9188"/>
<path transform="translate(1213,1851)" d="m0 0" fill="#AD9188"/>
<path transform="translate(1418,1837)" d="m0 0" fill="#AD9188"/>
<path transform="translate(1380,1828)" d="m0 0" fill="#AD9188"/>
<path transform="translate(1341,1812)" d="m0 0" fill="#AD9188"/>
<path transform="translate(1536,1724)" d="m0 0" fill="#AD9188"/>
<path transform="translate(1535,1723)" d="m0 0" fill="#AA8679"/>
<path transform="translate(1507,1678)" d="m0 0" fill="#AD9188"/>
<path transform="translate(1518,1536)" d="m0 0" fill="#AD9188"/>
<path transform="translate(1518,1533)" d="m0 0" fill="#AD9188"/>
<path transform="translate(724,1411)" d="m0 0" fill="#AD9188"/>
<path transform="translate(732,1407)" d="m0 0" fill="#AD9188"/>
<path transform="translate(104,1349)" d="m0 0" fill="#AD9188"/>
<path transform="translate(831,1339)" d="m0 0" fill="#AD9188"/>
<path transform="translate(866,1296)" d="m0 0" fill="#AD9188"/>
<path transform="translate(631,1257)" d="m0 0" fill="#AD9188"/>
<path transform="translate(579,1239)" d="m0 0" fill="#AD9188"/>
<path transform="translate(555,1233)" d="m0 0" fill="#AD9188"/>
<path transform="translate(1528,1129)" d="m0 0" fill="#AD9188"/>
<path transform="translate(1601,1057)" d="m0 0" fill="#AD9188"/>
<path transform="translate(1725,857)" d="m0 0" fill="#AD9188"/>
<path transform="translate(1102,691)" d="m0 0" fill="#AD9188"/>
<path transform="translate(1456,605)" d="m0 0" fill="#AD9188"/>
<path transform="translate(1766,574)" d="m0 0" fill="#E1091D"/>
<path transform="translate(1803,562)" d="m0 0" fill="#E1091D"/>
<path transform="translate(1665,71)" d="m0 0" fill="#FDBF09"/>
</svg>
