<?xml version="1.0" encoding="UTF-8"?>
<svg version="1.1" viewBox="0 0 2048 1182" width="1280" height="1280" xmlns="http://www.w3.org/2000/svg">
<path transform="translate(197,33)" d="m0 0 4 2h-2l1 5 6-3h10l7-1 4-2 9 6 5 2 2-4 4-1-2 4-2 3 5-5 5-1 7 4 1-3h3l2 4 9-2 9 1 8 3 5 3v4l9-1 1 1h12l10 6 9 1 7 3h6l3 3v2h2l1-3h6l3 2 6 1 2 4 7 1 12 2 13 4 2 5 4 1 2 1v-3l3 1v4l9 2 10 4 10 2 2 6v2h5l3 3 7 3 9 8 2 3h8l11 6 1 5 6 4 1 6 8 2 4 3v2l5 2 4 3 5-1 3 3v3h6l1 6 3 2 1 8 8-2 5 4 3 7h6l3 2 3 5 3 1v2h3l2-2 1 3 2 1 1 6 4 1 3-1 5 5 1 3 3 2 9-1 3 7 6 1v5l2 1 5-2 4 5 2 4v3l4 1 1-3v2l4 1v6l3 4 7 4v2h2l2 6 5 1h4l1 5 6 1 2 5 1 7h11l7 6 1 6h2v-2l4 2 4 3v4l2-7 3 1 1 3 5 2 4 1 2 4 8 3v3l3 1v2l9 3 1 1 8 1v2l4-1 2 1-1 3 9 5 2 4h7l2 6 5 4 6 3 6 2 8 3 3 3 8 1 3 2 2 5h7l4 5v2l5-2 5 6 8 4v4h2v-4l6 2 4 2 1-3 3 1 1 7 4 2 5-1 1 3h2l1-4h2l-2 5h-2l1 2 6 2-1-4 5-1 12 4 8 6 5 5v2h13l4 4v2h8l2 5 5-1 5 3 1 3 1-2h3v2h3l-1 4 3-1 3-3 1 5 5 1 1-3h2l-1 5h10v-3h2l-1 5 1 2 13 3 4-1 3-1 6 1 5 1 7 1 4 4 2 4v4l2-1 2-3 4 2 3 3 5-1 4-6h2l-1-6 4 1 1-5 2-2 4 4 2-5 5-7 5-1-1-1-4-1 5-3 4-4 7-3 2-4h-3l2-5 4 1 6-3 1-6 5-3 1-4h2v-2l5-1 2-2 4-3 1-3 7-4 7-2 3-6 9-4 13-11 7-5 9-1 5-7 5-3 8-2 3-2h12l5-7 3-2h8l2-1 1-5 3 4 5 2h3l-3-6v-3l3 1 1 2h6v-5l8 2 4-2v-3h2v2h5l2-3 5-1 3 1 5-2 8-1 2-1 1 4 4-4 5 3 5-1 5-4 3 1 1 2 6-3 7-1 5 2 2-1 2 2 5-1 1 3 10 5-1 6-4 8 2 5-2 16 2 2v4l-3 2 2 1 1 4-3-1-1-2-2 1 1 4-4 5 5-1 1 3-7 1-2 3v12l-4 5 3 2-1 4-3-1-1 10v6l-2 3-1 6-4 2-2 4 1 5-1 5v6l-4 2v7l4 2-3 1-4-2 3 3 4 3-1 4-6 6-4 14-2 6v6l8 4 6 4-2 3 2 7 4 7 1 7 7 3 1 7 3 5 4 1h6l8 5 6 3 3 3 2-3 2 1 2 2v3l7 2 2 2 3-2 10 4 4 5v4h4v-2l5 1 2 4h8 4l7 4 3 6v2h2l-1-7 9 2 5 3 7 2v4l8 1 1 2 10-1 5 3 2 3-1 2 4-2 3 5h5l3-1 5 2 2 4 6 1 3 4 7 3v2h8l2-3 6 3 5-1 3 1 1 5 3-1-1-4 4 2 13 3 6 4 10-1 1 3 6 1 7-1 5 1 1 3-1 2 3-2 6 1 3 1 3-3h3v-4l5-3 4-1 2-5 1-2 2 3 4-4h4l1-4h2l2-4 7-1 2-6h2l1-2h2v-4l5 1 2-5 3-3h2v-4l3 1 1 3h2v-7l4 1-1-4 2 1v2l5-5 4-2 4-4 5-3h2l-1 4h3l1-4 6-4 8-1 4 1 1-3 5-1 9 5 1 3 2 1-3 6h4l1 7h-2v3l5 2 1 2-3 7 4 4 1 5-7 4 1 7 3-1-1 4 1 3-4 8v5l3 4-3 1 1 1 1 12-1 2 3-1 2-4h3l3-1 8 1 7 2 2-4 3-1h4l2 1v2l8-2 3-1-2-5 10 2v-4l6-1h3v-5l5-1 4 2 2-5 4-1 1 1v-9h2l2 5 4 1 1-5h2l1-6 4-2 2-6h8l3-9 3-5 6-1 4 2 2-5 11-5 3-1-1-8h2l1-2 7 3 2 1-3-5v-5l3-1 3-5 4 2 5-1-1-4 4-1 2 1 1-6h7l2-1-2-6 8 2 1-7 3-3h4v-3h7v-2h3v-2h4l-2-5 6-2v-7l10-2 5-6 11-6 1-1v-6l9-4 2-2v-5l7-5 9-5 6-1 3-1 5 1 2-4h2v5h-2l4 6 3 1v2l3 1v3h-2l-1 3 1 3 1 4-4-3-1 19-2 6-2 5 1 6h-2l-1 4-4-3h-2l1 5-4 3 3 9-3 1-1 4 1 3-5 2 2 7-4-1 1 3-2 4-1 4-4 2-2 5-7 15v5l-3 3 2 4-1 4-5-5-2 6 2 1-1 3 1 6-4 13-4 5h2v2l-4 2-3 8-1 6-5 5-2 6h4l1-3 1 2-1 2h-2l-2 10-2 4-3 2-1 3h2l-1 11-3 1v5l2 1h-3v14h-3v2l2 1-2 7-1 4 1 9-5 6 1 4 5 2-1 4-1 6 3 7 2 2v7l7 8 2 11h3l1-2 4 4 4 11 8 8h6v4l4 5v2h2l1 6-1 3 4 1 5 5v11l4 2 2 10-1 5-1 3 4 1v6l-2 4 2 2-7 6-9 2-5-5-14 1-6-2-2 3-5-1-5-4-5-1v4l-5-1-2-4h-2v2l-7-1-10-3-5-1-14-4-9-4-1-3-4-1-7-3-5-2-2 2v-2l-5-1-5-2h-5l-4-4v-2h-4l-1 2-6-1-1-3-6-1-4-2-3 2-5-2-3-4-9-3h-7l-3-5v-4l-5 3-5-2-6 1-8-6h-13l-4-2-5 1v-2l-4 1 4 4 1 5h2l1-2 4-1 3 1v4l4 2 5 6-5 9-16 8h-4l-7 4-9 1-11-5-3 3-2-1 3-5-3 3h-2l-1-2h-5v2h-2l-2-2h-4l-1 3-5-1-6-5-11 1-3-2h-13l-3 6-4-1v2h-2l-2-3v3l-2 1-1 3h-3v2h-4l-2 5-1 2h-6l-5 3-3 5-3 1-6-2-2 5h-2l-2 1-2-1-1 5-7 4h-3l-1 5-9 1-4-3v3l-5 2v2h2l-1 3-7 3v-5l-4 4-4 2-1 2h-5l-7 7h-6l-8 7-4 5-4 1-3-2-4 4-8 7-3 1h-3l-3-1-3 6-4 3h-9l1 1v5l-3-2h-2l-2 5-8 3-6 4-5 2-5 5-3 4-5 2-7-1-10 4-3 5-4-1-5 5-3-1v-2h-3v2l-3 3h-2v-2h-5v6l-6-1-1 6-5 2v-3l-2-1 1 4-3 4-12-1 1 5-3 1-2-2-1 2-6 3-4-1-1 3-2-1-3 6-10 4-6-2-3 5-4 2h-7l-2 4-11 3-7 1-6 4-3 3-1 2h-5l-4-2-7 6-7 1-5 1v-2h-2l-2 5-1 2h-2l-1 1h-2v-2l-9 3-3-2h-5l-5 3-3-1-1 4-5 2-4-2-2 2-13 4-5 1-5-1-4 4-9-1-5 2-2-1v5l-4-1-1-5-2 1-1 3-10 6-2-1-2-4h-4v2l-4 3h-6l-3 1-1-1-2 4h-2l2-7-6 5-2 4-10 2-2 1v2h-2v-2h-4l-1 2-1-1h-8l-6 4-4 5-5-1h-16l-2 1-7-1-5-1-2-3-4 2h-7l-1 2-5-1h-3l-4 3-8-4-2 2-10-1-3-1v2l-9 1-3 5-2-1v-4h3l-1-4h-6l-2 7-6 1-2-1v-2l-4 3v-4l3-1v-3l-4 3-1 3-5-1-1 3-2-2h-10l-1 4-4 1-2-3-6 1-3 3h-6l-2-1v2h-5v-3l-6 1-6-1-5 2h-3-5v2h-2v-3l-6 2-10-1-6-1-4 1-2-2-4 1-6 2h-6l-1-3-7-2-2 4-11-1-4 3h-2l-2-3v-4h-2v3l-7 3-3-1v-2l-2-1-2 2-1-1h-8l-1 1h-5l-1-4-2 1v-2l-7-2 1 3h2v4l-15-5v2h-5l-5-3-7-1v-3l-8 3-6-2v-2h2v-2l-3 3-9-2-5-1-7 1-20-4-7-1-4-1-1 1h-12l-5-2-3 2-7-1-5-2-1-3h-3v-2l-8 2-1-1-2 2-10-4-3-3-2 2-7-2-2-2-3 1v2l-3-1 1-3h-5v-3h-5v2h-2l-1-5-4-2-1-1-2 5-2-1 1-6h-2l-1 4h-2v-3l-3 1 2 3-5-1 1-6-2-1-1 3-7-1-9-5-1-1-1 3-5-1v-4l-4 1-7-3-5-1-7-1-19-8-3-1-5-1-1-3h-7l-4 1-5-4-4-1h-3l-1-4h-3l-3 3-4-3v-2l-4-2-6-8-5 1-3 1-3-7-10-7 1-4-6 2-4-2-2-2-4-1-1-3-11-2-3-5-2-1v-2h-3l-1-4-4 1-2-7-5-3-3-3h-4l-2-4-1 2-5-1-1-3-5-1v-4l-6-7-7-5-4-6v-2l-4 2-1-4-3-1-4-5-5-4v2l-3-1-2-4 3-3-5-3-2-2-4-5-3 1-2-3-4-2-2-6-3-1-2-4-9-2-2-1 2-5-6-3-5-5-6-2-1 2v-2h-6v-2l-11 2h-7l-3 3-4 1-2-3-3 3-7 2-3 1-6-2-9 1-3-5-4 1-4 2-7-1-5 2-10-4-3 1-1 4h-12l-1-4h-5l-2 5h-4v-3l-2 1-2-1h-6-4l-5 3h-8l-2-4-2 5-2-1 1-2-5-1v2l-4 1v-2l-13 3-5-3-11 2-3 3-3-1v-2l-4 1-3-2v-2l-5-1-2-2 1-5 3-2-2-1 1-2 3-4 6-2 3-8 3-3 1-5 6 1 3-2 2-7 2-2v2l6-1-5-3 4-4 9-2 4-2v-5l9-3v-4l-1-3 9-1 7-4 6-10 9-1v-2l4 1-3-6h3l2 2 1-5 4-4 4 1 6-7 2-4 6-2 2-2 11 1-3-3-4-1v-2l4-4h4 2l1-6 4-1-1 4 3-3 2 1 3-3v-3l-5 3-1-6 2-5-2-1-2-6h-3l1-4-6-5-1-6v-3l3 3v-6-4l-1-3h-7l-3-3 1-4 3-1-6-4-1-3-4-1-2-4 2-1 1 4h2l-3-6v-2l-4-1-1-6-3-9-2-4 1-7-5 1 1-3 2-1 1-4-9-3-1-3 2-4v-11l-3-2-2-3-1-7 3 1-3-3-2-1v-13l-5-5-4-3v-13l-5-14-1-11h-2l-2-5v-9l-3-9-3-2-3-16-1-9-2-7-5-3-1-7-1-4 4-1v-6l-3 1-1-3h3l1-3-3 1-2-2-2-6 2-5v-9l-5-3 1-8-3-2v-3h3l-1-6-3-2 2-3-1-7-2-11 4-3-1-5-1-7 1-6-4-5 1-11 3-1-3-6-1-3 4-7-1-5-3-2-1-9-1-7 1 2 4 1-2-4-3-1v-6l2-2-4-8 2-5 1-5-5-8v-4l3-2 1-4-4-2-1-1v-5l4-5-2-11-5-4v-2l3-2-1-5-2-5 2-3-1-10 3-6-1-5-3-5 1-5 3-4 2-8 1-2v-14l5-10 2-2-1-5-1-4 2-12-1-5 6-3-1-7 4-3h2l1-4-5-1 1-5 3-1 3 1-1-7 1-4-2-1 2-7 6 2 3-11 4-2-2-5v-3l4 3v-9l8-5v-6l4-3 6-3 6-5h2l1-6h5l9-6 6-3 5 1 2-4 5 1-2-3 10-2zm86 14m118 35 2 2v-2zm3 1m129 77 1 3h2l-1-3zm782 137 1 4 4-1-2-2zm-3 1m-5 1m-64 6m-107 48m-193 65m-834 55m-1 1m1191 19m3 1m697 26m-640 32 1 2 3-1zm346 4m-14 1v4h2zm183 6m-150 31m-214 16m1 1m443 12v5l2-1v-4zm-167 6 1 4 1-3zm163 2 1 2zm-161 2m-3 1m-1631 15m20 44 1 3v-3zm1752 23m-1737 12m-1 2m1 1m2 1 1 3h2l-1-3zm3 4v2l2-1zm2 2m4 15m-1 2m-1 1 1 2zm-46 46-1 2h2zm1597 34m-63 22v2h2v-2zm3 1m-4 1m36 0-1 3h2zm-79 1m82 2m-1663 19 1 2zm1867 0m16 2-1 3h2zm-347 2m-1434 2m4 0m-96 2v3h2v-3zm35 1 1 2zm13 0m42 0m5 0m1415 6-1 2h2zm-1260 36 2 2v-2zm16 12 1 3 1-3zm31 28m994 41m-14 4 2 2v-2zm-887 18 1 2 1-2zm849 0 3 3-1-3zm-842 2 3 3 1-3zm76 25v3h2v-3zm35 9v2h2v-2zm585 8 1 2zm-518 12 1 2zm451 6m-22 5m-261 8 2 2v-2zm124 1 1 2zm-167 1m45 1 1 3 1-3z" fill="#2E73A1"/>
<path transform="translate(509,467)" d="m0 0 6 1 1 2 3-2 4 1h2l1-2 7 1 6 1 4-1 1 4 3-5h4l2 5 5-1 3-1 6 2 3-3 4 1 8 3-1 4h2v-2l5-2v-2l5 1 8 3 7-1 3 2h5l1 3 6 1 4-2 4 6 7-1 3-1 6 3 1 3 5-2 5 4 3 2v3l9-4 4 1 3-2 4 1 1 6 10-1 3 2h8l5 4 11-2 3 3-1 2h2v-2l11 1 3 4 5 1 1 3 2 1v-4l5 1 5 5 12 6 5-2 1-1 9 1 7 8 4 1 14 1 2 4 4 2 7 4h10l4 3h6l2 2v4h5l1 3 7 1 4 4 6 3 3 4h5l4 3 11 2 5 5 7 4 2 3 7 3 4 8h7l2 2 1 5 2 4 5-2h4l6 10 12 6 3 4 1 4 6 2 2 7 4-1 5 4-1 5 4 2 2 4 4 2 1 5 8 6 5 1v5h3l2 5 6 4 3 3 5 1 3 3 2 4 5 2v2l5 2 9 9 2 5 5 3h5v4l-4-1 3 3 3 2v2l4-1 4 5 8 4 4 6 5 1 8 10 1-6h2l3 9 2 3-1 4-3 3 1 9h2v6l3 3-2 3 1 6 2 3v8l1 5-3 3-2 1-1 7 4 1-1 3-2 1v13l-1 9-3 2 3 6v2l-6 2v3h2l1 7-4 1v7l-2 5 1 3 2 1-1 5-2 2-2 5-1 2 3 2-2 5-3 8-4-1-2 1-1 5 1 6-4-1-2-1 1 5-5 1-1 4-5 1v7l-2 3v3l4 4-2 4 8 5 6 4 7-1 2 1 1-3-4-1 1-4h2l2-5 1-1h10l-1-6h3l2 1v-6l3-3 3-1-1-4v-7l6-1-1-6 5-5 2-5 1-10-2-5 4-5 2-5v-9l2-6-1-4 1-5 1-7-1-5 3-7 2-7-2-3v-15l4-4-2-5-1-4 2-3-4-1v-7l1-1v-8l5 1 4-1 2 6 7 3 1 4-1 2h7l3 3 6 1-1 4 5 2 3 2h5v3l-1 4 1 4-3 1v2l6 1v2l-4 3h-2v4l4 2v20l-3 10-1 5 2 4-2 4h-2l-1 7-4 2 1 9-5 10 1 4 2 1v5l-5 3-3 3-2 3-5 2-1 7-9-1-1 9-7 2-3 9-5 1 2 7 7 4-2 6 4-2 17-1 4-1 5-5 4-2 2-7 9-6 4-2h3v-8l1-2 3-1-1-6 4-2 2 1-1-10 3-2h3v-8l4-7 1-10-3-1 1-4 1-1v-10l3-10 4-2-3-7v-5l1-1-1-19 3-3 6-1 2 4 5 1 3-4 4 1 6 4v3l5-2 4 1 9 5 2 2h13l3 3v-2l9 1 8 3 5-1 4-1 2 2v7l-1 2 5-3 5 1 3 2 5-2 6 1 9 2 9 4 1 3 9 2v-2l4-1 6 3 2 2 7-1 2 3h6l6-1 4 4h10l3 1v-2l4 1 3 4 11 1 5-1 1-4h3l1 5 6 1 2 3 6-1v-2l6 2 4 3 7-1 3-2h7l3 3-2 3 8 1v-2l-2-1 3-1 5 1 2 1h6l1-1h7l4 3 8-1 5-3 5 1 10-2h6l3 2h8l6 3 2-4 5 1 2 3 7-1 9-2 3-1-1 5 3 1v5l2-1 3-7 3 1 3 3 5-3 8 1 6 1 2 4-3 1-2-1-2 5h-2l-2 1-2-1-1 5-7 4h-3l-1 5-9 1-4-3v3l-5 2v2h2l-1 3-7 3v-5l-4 4-4 2-1 2h-5l-7 7h-6l-8 7-4 5-4 1-3-2-4 4-8 7-3 1h-3l-3-1-3 6-4 3h-9l1 1v5l-3-2h-2l-2 5-8 3-6 4-5 2-5 5-3 4-5 2-7-1-10 4-3 5-4-1-5 5-3-1v-2h-3v2l-3 3h-2v-2h-5v6l-6-1-1 6-5 2v-3l-2-1 1 4-3 4-12-1 1 5-3 1-2-2-1 2-6 3-4-1-1 3-2-1-3 6-10 4-6-2-3 5-4 2h-7l-2 4-11 3-7 1-6 4-3 3-1 2h-5l-4-2-7 6-7 1-5 1v-2h-2l-2 5-1 2h-2l-1 1h-2v-2l-9 3-3-2h-5l-5 3-3-1-1 4-5 2-4-2-2 2-13 4-5 1-5-1-4 4-9-1-5 2-2-1v5l-4-1-1-5-2 1-1 3-10 6-2-1-2-4h-4v2l-4 3h-6l-3 1-1-1-2 4h-2l2-7-6 5-2 4-10 2-2 1v2h-2v-2h-4l-1 2-1-1h-8l-6 4-4 5-5-1h-16l-2 1-7-1-5-1-2-3-4 2h-7l-1 2-5-1h-3l-4 3-8-4-2 2-10-1-3-1v2l-9 1-3 5-2-1v-4h3l-1-4h-6l-2 7-6 1-2-1v-2l-4 3v-4l3-1v-3l-4 3-1 3-5-1-1 3-2-2h-10l-1 4-4 1-2-3-6 1-3 3h-6l-2-1v2h-5v-3l-6 1-6-1-5 2h-3-5v2h-2v-3l-6 2-10-1-6-1-4 1-2-2-4 1-6 2h-6l-1-3-7-2-2 4-11-1-4 3h-2l-2-3v-4h-2v3l-7 3-3-1v-2l-2-1-2 2-1-1h-8l-1 1h-5l-1-4-2 1v-2l-7-2 1 3h2v4l-15-5v2h-5l-5-3-7-1v-3l-8 3-6-2v-2h2v-2l-3 3-9-2-5-1-7 1-20-4-7-1-4-1-1 1h-12l-5-2-3 2-7-1-5-2-1-3h-3v-2l-8 2-1-1-2 2-10-4-3-3-2 2-7-2-2-2-3 1v2l-3-1 1-3h-5v-3h-5v2h-2l-1-5-4-2-1-1-2 5-2-1 1-6h-2l-1 4h-2v-3l-3 1 2 3-5-1 1-6-2-1-1 3-7-1-9-5-1-1-1 3-5-1v-4l-4 1-7-3-5-1-7-1-19-8-3-1-5-1-1-3h-7l-4 1-5-4-4-1h-3l-1-4h-3l-3 3-4-3v-2l-4-2-6-8-5 1-3 1-3-7-10-7 1-4-6 2-4-2-2-2-4-1-1-3-11-2-3-5-2-1v-2h-3l-1-4-4 1-2-7-5-3-3-3h-4l-2-4-1 2-5-1-1-3-5-1v-4l-6-7-7-5-4-6v-2l-4 2-1-4-3-1-4-5-5-4v2l-3-1-2-4 3-3-5-3-2-2-4-5-3 1-2-3-4-2-2-6-3-1-2-4-9-2-2-1 2-5-6-3-5-5-6-2-1 2v-2h-6v-2l-11 2h-7l-3 3-4 1-2-3-3 3-7 2-3 1-6-2-9 1-3-5-4 1-4 2-7-1-5 2-10-4-3 1-1 4h-12l-1-4h-5l-2 5h-4v-3l-2 1-2-1h-6-4l-5 3h-8l-2-4-2 5-2-1 1-2-5-1v2l-4 1v-2l-13 3-5-3-11 2-3 3-3-1v-2l-4 1-3-2v-2l-5-1-2-2 1-5 3-2-2-1 1-2 3-4 6-2 3-8 3-3 1-5 6 1 3-2 2-7 2-2v2l6-1-5-3 4-4 9-2 4-2v-5l9-3v-4l-1-3 9-1 7-4 6-10 9-1v-2l4 1-3-6h3l2 2 1-5 4-4 4 1 6-7 2-4 6-2 2-2 11 1-3-3-4-1v-2l4-4h4 2l1-6 4-1-1 4 3-3 2 1 3-3v-3l-5 3-1-6 2-5-2-1-2-6h-3l1-4-6-5-1-6v-3l3 3v-6-4l-1-3h-7l-3-3 1-4 3-1-6-4-1-3-4-1-2-4 2-1 1 4h2l-3-6v-2l-4-1-1-6-3-9-2-4 1-7-5 1 1-3 2-1 1-4-9-3-1-3 2-4v-11l-3-2-2-3-1-7 3 1-3-4 3-5 4-8 2-3 5-1 3-11 3-3h2v-2l5-5 1-4 3-1 3 1 2-5 4-2 1-5 7-1 8-7 5-1v-5l3-1-1-4 1-1 10-2 3-2 2-7 9 1 3-4h5l3-1 1-5 7-1v-5l4-3 8 1 5-3-2-2 1-5h8l10-2h3v-6l3-4h7l2-2h12l2 1 2-4 5-3 6-1 7-4 1 4h4l1-4 5-1 1 2h5l3-3 13 1 13-3 6-3 6-1 5 1 5-5 8-1 5 4 4-2h3v4h2l2-5 10 1 6 5 6-2 13-4 9-1 1 2 4-1 3-2 5 1 5 3 4-2h8l5-2zm-354 182m20 44 1 3v-3zm15 35m-1 2m1 1m2 1 1 3h2l-1-3zm3 4v2l2-1zm2 2m4 15m-1 2m-1 1 1 2zm-46 46-1 2h2zm-91 80 1 2zm1536 4m-1434 2m4 0m-96 2v3h2v-3zm35 1 1 2zm13 0m42 0m5 0m1415 6-1 2h2zm-1260 36 2 2v-2zm16 12 1 3 1-3zm31 28m994 41m-14 4 2 2v-2zm-887 18 1 2 1-2zm849 0 3 3-1-3zm-842 2 3 3 1-3zm76 25v3h2v-3zm35 9v2h2v-2zm585 8 1 2zm-518 12 1 2zm451 6m-22 5m-261 8 2 2v-2zm124 1 1 2zm-167 1m45 1 1 3 1-3z" fill="#E4E2E0"/>
<path transform="translate(871,621)" d="m0 0 5 1 3 2h11l3 3 1 7-1 3 7 1-1 6-4 4 2 4 4 2-1 11-1 2h5l-3 5-4 1-1 8 5 6v6 3h-2l-1-2h-5l2 4 2 10-6 3v3l3 2-1 4h-2v9l1 3-2 8v8l1 2-1 2-4 1-1 8-4 6v5l1 3h-4l5 9-4 3h-2l-2 13-3 6 5 1-1 3-6 2-3 12-5 5-3 8-2 1v7h-5l1 9-5 4-1 2-5 2-3 9-6 2-5-1 2 9-4 4-5 3-2 6-6 3-2 2h-6l-2 10-11 5-3-1 1-9-2-7-5-2 1-9-2-7-8-5 1-5 2-3v-3l-5-2 1-10-1-5-6-1-2-4-3 1-2 3h-4l1 7-3 3-1 2 3 1v3l-7 3-5 6-1 5-4 4-2 1-2 6-5 5v-2h-2v5l4-1-1 3h-2l-2 4-4-1v6l1 1v5l-5 5-1 4-3 3-5 2-3 2-3-1v-3h-3l-4-7v-2h-2l-3-5-4 1-2-4-3-1-5-8-4-14-2-1v-6l-3-3-14-7v6h-2l-2 7-3 3-1 4-7 4h-3v3l4 1-3 1-1 5-3 1h-4l-3 11-13 13-6 1 1 6-4-2-3 3h-5l-4-5-4-3v-9l-2 1 1 3-5-1-1-7-3-1-5-5-4-7v-9l-5-5-2-7-4-4-4-9v-7h-11v6l-5 2v6l-3 8-7 3-4 6h-4v3l4 2v4h-2l-2 5-2 4-7 1-4 11-1 3 1 4-2 3-2 7-5-1-3-4v-3h-2v3l-6-2-3-9-8-5-6-2-1-6-6-1-2-8-6-5-7-7-2-1-1 3-3-1-2-7-1-7-1-4-9 2-4 6h-2v8l-1 3-2 9-3 1-1 5 2 6h-3v3l3 1v9l-5 1v5l-2 1-6-3-7-2-8-6-5-3-4-7-6-1-4-1-2-3-6-1 2-5-6 1-3-3 1-8-5 1-5-6v-2l-5-2-3-6-5-3-5-5v-3l2-4h-2v-2l-7 1-1-5v-4l-3-1-5-8-6-12-1-8-2-7-3-4-2-7-3-2 1-8h-5l2-1-1-7-5-1 2-6-3-1v-2h-2l1-4-3 1-1-1v-12l-5-2 2-4-4-3v-5l-3-3 2-10-5 1-1-1v-13l1-5h-6l-1-3-1-8 5-4v-4l-2-1v-5l2-4-5-3 5-10 2-2 3-7 1-1 10-1 4 4 1 10 3 3 2 8h-2v8l2 5v5 4l2 2 3-2 2 3 1 10-5 2h4l2 7 3 3-1 7 5 1 5 12v10l9 1-1 4h-2v5l10 4 5-1 2-5 7-2-1-8 1-5-2-3 6-2v-2h-2v-2h4l-4-5v-8l4-6-1-3-5-3v-2l6-4 1-3v-8h2l1-12 3-8h7l1 2-1 5 3 8v4h2l1-2 3 5h-3l1 3h2l2 4 2 1v3l-5 3 4 1 6 5 4 6v5l-1 1v5l2 3 7 1 4 7v3l5 2 7 2 6-5 5 1 2-4 1-10 5-4 1-6-2-3 1-7 5-5v-7-4l4-3-1-6 3-3v-5l3-1-2-10 4 1v2l6 2 5 1 1 5h-2l-1 4h-2l4 4 1 3 5 2-2 4 1 4 5 3v2l-4 2v2l5 1 1 9 1 5 3 4 3 1-1 7h7l5 10 6 4 1 2-2 2 5 3h5l2-2h7l1-6 2-6 5-8 1-4 3-6 1-7 5-5 2-5v-11l4-2 2 1 1-12 1-2h2l-2-5 2-2 7 1 7 6 3 1v5l-2 2 3 7 6 3-1 7 4 6v6l-1 7h9l2 3 3 14 7 2 4 4 7 4 2 4h11l1-7 12-14 1-6v-6l7-3 1-6 1-7 3-15 3-3 2 1 1-3h2v-5h5l4 6 3 5 5 1 3 7 6 3 3 9v5h5l3 5 6 3v9l4 1 5 1 3 5 1 2 7 2 4 4h3l4-6 3-5v-8l6-2v-10h5l-2-5h7l1-10v-3l6-4 7-15 2-6 5-1 1 4-1 7 4 2 7 3 6 8 5 5 5 9v3h-3l-1 2 7-1 1-3 3 1v2l6 2 2 6 5 2 11 2 7 3 2 2 10-2 1-4h4v-2l-5 1 2-6 2-2 1-5-4-1 1-3 3-2-1-7 2-5-4-1 2-6 6-7 1-5-1-3v-17l5-7-1-5-2-4 1-10v-8l8-5 4-4z" fill="#E00F1C"/>
<path transform="translate(828,626)" d="m0 0 6 1 5 1 2-2 5 1 2 1 1 18-1 5 2 4 1 5-5 7v17l1 6-4 6-3 3-2 6 3 1-1 7 1 5-4 3v2l3 1v5l-4 6h2l3 1-1 3-4 1-1 3-10 2-3-3-9-3-8-1-5-3-3-6-5-2-3-3-1 4h-7l1-3 3 1-7-14-6-5-4-6-7-3-3-2v-10l-5 1-3 9-6 12-4 3h-2l1 8-2 6h-6l1 4h-5v10l-6 2 1 8-8 12-4-1-4-4-7-2-3-6-10-2v-10l-6-3-2-4-5-1-4-14-6-3-2-3v-4h-5l-3-3-4-8-5-1v5l-3 3h-3l-2 5-3 15v7l-2 4-6 2v8l-2 5-9 10-4 10-2 1h-9l-3-5-9-5-1-3h-6l-2-2-4-16-9-1-1-5 1-2v-6l-4-7 1-6-6-3-3-8 2-1 1-5-4-1-8-6h-5v3 3h-2l-1 12-1 2-6 1 1 11-4 8-4 2v7l-4 7-1 5-6 10v6l-3 3h-6l-2 2h-5l-6-4 2-3-8-6-3-9-7 1-1-4 1-4-4-1-3-6v-12h-5v-4l4-1v-2l-5-2-2-2 1-4 1-3-5-2-1-3-3-2v-2l2-1 1-3h2l-2-5-7-1-4-4-3-1 2 5v5l-2 1v6l-3 2 1 6-5 4 1 5v5l1 2-4 1-3 4v5l2 3-1 6-5 4-1 10-3 4h-5l-3 1-1 3-4 1-10-5-4-9-7-1-3-4v-5l1-1v-5l-7-9-4-2-3-1 3-3h3v-3l-4-2v-3h-2l-2-4h3l-2-3-3 1-3-10-1-4 1-4h-7l-2 7-2 12h-2l1 9-4 5-4 1 3 3 4 3-2 5-2 3v10l3 1v2h-4v2h2v2l-5 2 2 5-1 6v5l-7 2-2 6-5 1-10-4-1-4 3-3 1-3h-9l-1-5v-6l-5-12-4-1 1-7-3-1-2-3-1-5-4-1 3-2h3l-3-12-3 2-4-4 1-8-2-5v-6l1-2h2l-4-9-2-2-1-10-2-5h5l4 2 16-2h9l4 2h5l2-2h15l4-2 6 1h8l1-1h6l6 2 6-1 4-3 8 2 3-3h5 3l2-2 10 1h5l1 4 2-1 2-5h7l5 1 11-1 14-2 4 1h12l18-2 20-2 5-2 3-2 4 1 1 2 14-1 3-3 12 3h9l2-5 5 1 3 3 4-2h33l1-1h12l10 1 6-1 10 1 6-2h35l10-1 3-2 14-2h7l3 2 18-1 3-2 12 1 6-2h12l2-1h23l6 1h8l6-3z" fill="#FDFDFD"/>
<path transform="translate(1309,293)" d="m0 0 7 2 2-1 2 2 5-1 1 3 10 5-1 6-4 8 2 5-2 16 2 2v4l-3 2 2 1 1 4-3-1-1-2-2 1 1 4-4 5 5-1 1 3-7 1-2 3v12l-4 5 3 2-1 4-3-1-1 10v6l-2 3-1 6-4 2-2 4 1 5-1 5v6l-4 2v7l4 2-3 1-4-2 3 3 4 3-1 4-6 6-4 14-2 6v6l8 4 6 4-2 3 2 7 4 7 1 7 7 3-1 7h-9l-7-3-8-2-9-4-9-2-5 1-2-1-2-6-2-1-9 1-7 1-9-6-7-3-2-3-15-1-6-2-5-1-1 1h-5v-3h2l-2-3-9 1-9-4-6-1-3 3-5-3-6-3-3-2v-2l-4 3-5-1-1-1h-5l-2 1-4-3-7-2-5-4-18-3-2-2-1-4-10 1-5-4h-9l-8-3-2-4-6 1-4 1-2-2-1-4-7 2-5 1-1-5-8-1 1-5 1-2h2l-1-6 4 1 1-5 2-2 4 4 2-5 5-7 5-1-1-1-4-1 5-3 4-4 7-3 2-4h-3l2-5 4 1 6-3 1-6 5-3 1-4h2v-2l5-1 2-2 4-3 1-3 7-4 7-2 3-6 9-4 13-11 7-5 9-1 5-7 5-3 8-2 3-2h12l5-7 3-2h8l2-1 1-5 3 4 5 2h3l-3-6v-3l3 1 1 2h6v-5l8 2 4-2v-3h2v2h5l2-3 5-1 3 1 5-2 8-1 2-1 1 4 4-4 5 3 5-1 5-4 3 1 1 2 6-3zm6 4 1 4 4-1-2-2z" fill="#02486E"/>
<path transform="translate(764,840)" d="m0 0 2 1v4l6 1 2 5-1 10 5 2-1 5-2 2-1 4 5 2 5 4 1 10-1 5 4 2 3 7-1 9 5 1-1 4-6 2-5 5-10 5-9 7-7 5-9 3-13 5-16 8-8 7-10 1-2 2-8 1-8-2-9 3v2l-4 2-8 1-6 4-5-1-1-3h-10l-2 2-6 1-6-4-3 2-4-1-5-1-5 4h-5l-2-2-5 1-1 1-7-1-6-5-4 2-10-2-7-1-20-3-17-5-6-1-6-2-5-1-4 2-6-1-9-4-7-2-8-6-9-3-5-2-7-2v-2h-9l-11-3-6-3-9-2-4-4 1-3 4-2v-13l-1-9 4-5 3-6v-11l5-5 2-1 4 1 4 8 1 1v7l8-2 1 6-1 6 13-1 1 8h6l2 7 9 3 6 5 1 8 4 1 2 1v-3h2l4 7h4l1-7 2-4-1-3 4-9 2-5 7-1 4-8h2l-2-5-2-1v-3l4-2 5-6 6-2 2-7v-6l5-2v-7l12 1 1 7 4 9 5 5 2 9 4 2v9l4 7 7 6 2 4v3h3l-1-3h3l1 3v6l5 4 2 3h5l3-3 3 1v-4l8-3 7-8 3-3 3-11 4-2 4 1 1-5 2-1-3-1v-3l10-5v-4l4-3 2-6h2v-6l4 1 11 6 3 4-1 5 3 1 4 14 5 8 4 4 5-1 2 6h2l4 7v2h3v3l5-1 2-2h4l1-3h2l1-5 4-4v-5l-1-4 1-3 5-1 4-5-4 1v-5h4l3-4 2-6 4-2 2-3v-5l4-2 2-4 7-2-1-3-2-1 2-5h2l-2-8h5l2-3z" fill="#FDFDFD"/>
<path transform="translate(1242,597)" d="m0 0h2l2 6h5l2-2 6 1 3-1h10l9-2h7l1 5 8-1 4 1 2 4h9l4 2 9-4 3 1 2 5 8 4 6 1 1-2h3v3l5 2h7l15 3 8 1 1 2h-4l1 3 10 1 7-2 3-1 3 5 7-1 2 1 11 1 1 3h7l4-1 8 4h6l3 2h14l2 2-5 1-1 3h10l1-2 4 1-1 3h2l1-2 5 2h4l-1 3 10 1 5-3h2l1 5 2 4 1-1 7-1h9l1 4 6 2v2l5 2 4 3h1l1 7 5 2 1 9 1 4-4 9-2 6v4l-4 1v10l-6-1-3 6-2 2v5l-6 2-1 3-1 5-6 2-3 5-5 3-7 3-5 4h-2l-1-5-3 1-2 5-5 6-5 1-3 5-4 4-4-1-9 3-8 1v3l-9 2-7 4-10 5h-2l-2 4-8-1-7 4-3 6-7-1-5-2-9 5-5 1-2-2-12 1-16 3-3 1-4-1-7 3-3 1-3-3-2-4-3 3-12-3h-13l-3-3-11 2-9-6-10-2-1-1-7-1-1-5-7 1 3-9 3-4 16 1 4 1 8-4 5 1 2 2h5l3-1 3 2 6 1 2-4 6 1 4-2 2 3 3 1 2-4 2 3 4-1 6-1 2 2 5-1 2-2h6l4 1 5-1 4-1h3v-2l9 1 6-2 6-3 5 2 5-4h2l1-4h3v3h4v-2l8-4 2-3h12l2-4 8-4 10-1v-2l-2-1v-2l10-1 7-4 2-4 1 2 3 1 2-4 8-3 1-5h5l10-10 8-10v-6l-1-1-2-12 5-3-1-3-6-2v-5h-5l-1 1h-9l-9-2-1-3-7-1h-6l-3-4-3 5h-4l-2-2-6-1-1 3-7-2-1 2-4-2-4 1-3 2-8-6-12 1-5-4h-6l-5-6-2-1h-8-4l-1-1-11-1-1 1-10 1-4-6h-6l-2-1-11-1v-6l-4-1v5l-5-1 1-5-8-1-5 1-7-2-2-4-10-1-3 1-4-3-5 1-7-3-6-2v-5h-8l-5-3-2-5h-2l-4-6-2-4v-6z" fill="#01486E"/>
<path transform="translate(205,758)" d="m0 0h2l1 9 1 4-2 5 8 1-1 7-1 8 6 9 1 6 4 1 1 1 1 9 4 4 5 2-3 12h6l2 1v6l3 3 3 4v3l8 2 3 3v10l4 3 5 2 2 13-5 1v-2l-11 2h-7l-3 3-4 1-2-3-3 3-7 2-3 1-6-2-9 1-3-5-4 1-4 2-7-1-5 2-10-4-3 1-1 4h-12l-1-4h-5l-2 5h-4v-3l-2 1-2-1h-6-4l-5 3h-8l-2-4-2 5-2-1 1-2-5-1v2l-4 1v-2l-13 3-5-3-11 2-3 3-3-1v-2l-4 1-3-2v-2l-5-1-2-2 1-5 3-2-2-1 1-2 3-4 6-2 3-8 3-3 1-5 6 1 3-2 2-7 2-2v2l6-1-5-3 4-4 9-2 4-2v-5l9-3v-4l-1-3 9-1 7-4 6-10 9-1v-2l4 1-3-6h3l2 2 1-5 4-4 4 1 6-7 2-4 6-2 2-2 11 1-3-3-4-1v-2l4-4h4 2l1-6 4-1-1 4 3-3 2 1zm-52 44-1 2h2zm-91 80 1 2zm102 6m4 0m-96 2v3h2v-3zm35 1 1 2z" fill="#03496F"/>
<path transform="translate(1043,591)" d="m0 0h6l1 5 6-2 4-1v7l3 8 4 2-2-5 1-2h2l2 12 5 5 5 6 3 12 5 2 1 1 1 9 4 5 3 2-1 7 2 5-1 3 4 3-2 5v3l5 5 3 4v5l-3 1 2 4 1 3 5 1-1 7 5 8-1 8 1 7 4 2 2 13v6l3 1-1 9-2 4h-2l3 6v12l3 1-1 6 3 4-2 4h-2v17l2 5-4 10-1 5 1 3-2 8v6l1 2-2 5v9l-6 12 2 3-1 10-2 5-5 5v6l-6 1 1 7 1 4-6 2-1 8-4-1v6l-10 1-2 5-1 3-2-2v3h4l-2 5-4-1-5 1-8-5-6-4v-3l1-3-4-3 1-5 1-1 1-7 5-1 1-4 5-1-1-5 5 1-1-7 2-4 3-1 3 1 2-7 2-5-4-3 3-2 2-5 2-2 1-4-3-1-1-4 2-4 1-7 4-1-1-7h-2l-1-3 4-2h3l-4-9 3-1 1-15v-7l3-2v-2l-3-1v-7l5-2-1-11-1-6-2-3 1-6 1-2-3-2 1-6h-2l-2-5 1-5 3-3-1-5-3-5v-6h-2l-4-9v-2h-3l-2-9v-11l-2-6-8-2v-14l1-1v-8l-4-1v-7l-4-4 1-4-9-3v-10l1-6-5-1 1-3-2-1 1-3-5 1-5-6-8-24 1-5 6-5z" fill="#02496F"/>
<path transform="translate(1149,655)" d="m0 0 4 1 3 2h8l-1 9 4 2 4-2 2 4h-4v4l4 2 5 5 3 5-1 7v8l8 13 5 12 1 14-1 3v10l5 8v10l-3 13 3 1-1 6-2 1 2 4 5 6-3 4v6l-2 3-1 6 2 3v7l-2 4 1 10h2l2 4v3l-3 2-3 10v10l-2 2v3l3 3-2 11-3 4-1 8-5 2v5l1 3-1 2-5 1 1 7h-4l-1 10-14 7-2 2-2 7-7 4-2 3-16 2h-5l-4 1 1-6-7-4-1-7 5-1 2-9 2-2h6v-9l4-1 6 2v-7l2-2 4-1 3-5 6-3 1-5-4-2 1-4 4-9-1-7 5-6 1-5 2-1 1-5-2-2 1-5 3-12v-18l-3-2v-4l4-3h2v-2l-6-1v-2l2-1-1-7 3-5h-2l-1-4v-6l-3-4 1-4 5-1-3-7-1-1-2-14-2-2v-5l2-4-5-2v-20l-4-2 1-5 2-2v-4l-4-4-1-6-6 2-1-2 1-2v-6l-6-9-7-6 1-11 1-3 5-1 1-6 2-2z" fill="#02486F"/>
<path transform="translate(1680,793)" d="m0 0 4 1 1 1h5l4-2 2 3 6 1v-2l6-1 5 3 12 4 2 3-1 8 4 6 6 4 1 4 5 3 2 7h2l1-2 4-1 3 1v4l4 2 5 6-5 9-16 8h-4l-7 4-9 1-11-5-3 3-2-1 3-5-3 3h-2l-1-2h-5v2h-2l-2-2h-4l-1 3-5-1-6-5-11 1-3-2h-6l-5-3-14-3v3h-3v-2l-9-2-9-5-13-2-2-5 1-4 1-5 1-3 3-3h-2l2-5h6l2 1 2-9 1-1h7l5 2 2-3 6-1v-3h8l5-2 1-1 7 1v-2l3-2h7l4-4zm70 43m-63 22v2h2v-2zm3 1m-4 1m36 0-1 3h2z" fill="#02496F"/>
<path transform="translate(1705,550)" d="m0 0 5 1 8 5v2l2 1-3 6h4l1 7h-2v3l5 2 1 2-3 7 4 4 1 5-7 4 1 7 3-1-1 4 1 3-4 8v5l3 4-3 1 1 1v9l-5 2-1 2-6 1v-4h-11l-11-2-1 3h-2l-2-4h-7l-6-3-2 4-6-2h-8l-6-4h-7l-4 2h-5l-4-2-6-1h-13l-5-5-6-5 2-5 6-2 2-5 1-2 2 3 4-4h4l1-4h2l2-4 7-1 2-6h2l1-2h2v-4l5 1 2-5 3-3h2v-4l3 1 1 3h2v-7l4 1-1-4 2 1v2l5-5 4-2 4-4 5-3h2l-1 4h3l1-4 6-4 8-1 4 1 1-3zm0 6m-14 1v4h2z" fill="#03496F"/>
<path transform="translate(924,479)" d="m0 0 7 4 6-1 6 4 4 6-1 7 2 4-1 10-1 6-1 5 3-1v2l-3 2h-3l-1 5-5 2h-5l-4 7h-6l-4 1-7-3-8-5-5-3-4-8-2-14 1-11 6-3 2-6 3-1 1-4 8-1 8-2z" fill="#01486E"/>
<path transform="translate(332,113)" d="m0 0 7 2 7 5h7l4 6 4 5 6 3-1 4h-2l2 6 3 2-1 5-3 5h-18l-7-3-1 3-2-1-3-11-1-5h-2v-2h-4v-6h3v-6l-4-2 3-7z" fill="#01486E"/>
<path transform="translate(139,150)" d="m0 0 11 1 2 2 9 2v8l1 8 1 5 2 2-4 3h-3v2l-6 4-9-1-5-4-1-9 2-2-1-7-2-10 1-3z" fill="#01486E"/>
<path transform="translate(440,677)" d="m0 0 4 1v2l6 2 5 1 1 5h-2l-1 4h-2l4 4 1 3 5 2-2 4 1 4 5 3v2l-4 1v-2l-3-1-5-11-1-4-9-1-5 2 1 5-3 4 3 2 1 5-3 1-1 4-5 1v3l-2 1-2 4 1-7 5-5v-7-4l4-3-1-6 3-3v-5l3-1z" fill="#F42D38"/>
<path transform="translate(439,675)" d="m0 0 5 1 2 2h8l3 3 1 8 1 5 6 4-1 4-3 3 1 4 6 4 1 14-1 2 5 1 2 7v4l4 1 1 3-7 1-1-4 1-4-4-1-3-6v-12h-5v-4l4-1v-2l-5-2-2-2 1-4 1-3-5-2-1-3-3-2v-2l2-1 1-3h2l-2-5-7-1-4-4-3-1-1 2z" fill="#E5E2E0"/>
<path transform="translate(308,821)" d="m0 0h1l3 10 8 3v7l4 3v2h2l-1 2 7 7 4 9-1 5-7-6 3-6h-2v-2l-7 1-1-5v-4l-3-1-5-8-6-12z" fill="#F33842"/>
<path transform="translate(761,836)" d="m0 0 6 2 3 5 3 2 2 5-1 4-2-5v-3l-6-1-2-4-3 1-2 3h-4l1 7-3 3-1 2 3 1v3l-7 3-2 1 3-9 3-5-2-2 3-7h2l-1-3z" fill="#F32C37"/>
<path transform="translate(428,864)" d="m0 0h8l6 7 1 11 7 1 4 6v2l5 2 2 4-3-1-10-10-2-1-1 3-3-1-2-7-1-7-1-4-9 2-4 6h-2l3-10z" fill="#F42D38"/>
<path transform="translate(356,682)" d="m0 0h7l1 2-1 5 3 8v4h2l1-2 3 5h-3l1 3h2l2 4 2 1v3l-5 3 4 1 4 4-5-1-6-3 1-4-2-1v-7l1-2-3-1-4-13v-5h-2v-2l-3-1z" fill="#F42D38"/>
<path transform="translate(350,885)" d="m0 0h7l2 3v3h2l1 4 5-1 5 2v9h7 3l4 7 3 3 6 4-1 2-9-6-4-7-6-1-4-1-2-3-6-1 2-5-6 1-3-3 1-8-5 1z" fill="#F32B37"/>
<path transform="translate(283,759)" d="m0 0 2 2v4l3 1v2l3 5 2 7 1 4h4l2 9 2 4 1 12-2-2-2-7-3-2 1-8h-5l2-1-1-7-5-1 2-6-3-1v-2h-2l1-4-3 1-1-1z" fill="#F3313B"/>
<path transform="translate(654,866)" d="m0 0 4 1 11 6 3 4-1 5 3 1 2 9-3-3-1-5-4-4-4-5v-3l-7 1-3 5-4 3-1 5-3 2-3-1 3-2v-4l4-3 2-6h2z" fill="#E5E2E0"/>
<path transform="translate(414,901)" d="m0 0 3 3 1 5h-3v3l3 1v9l-5 1v5l-2 1-6-3-7-2 9-3 3-3h2l2-4-1-7 2-2z" fill="#F42D38"/>
<path transform="translate(505,919)" d="m0 0 1 3 1 4-2 3-2 7-5-1-3-4v-3h-2v3l-6-2 1-2h4v-2h4l7-1z" fill="#F42D38"/>
<path transform="translate(289,685)" d="m0 0 4 5 1 3v5l4 2 4 17-1 10-2-1-1-5-4-1 3-2h3l-3-12-3 2-4-4 1-8-2-5z" fill="#E5E2E0"/>
<path transform="translate(1170,801)" d="m0 0 2 3 2 8v6l-3 12-2-4-3-2v-4l4-3h2v-2l-6-1v-2l2-1-1-7z" fill="#2C719F"/>
<path transform="translate(644,692)" d="m0 0h5l2 4h-4v9l-5 1-5 3-2 2 1-9 3-3 2 1 1-3h2z" fill="#F42D38"/>
<path transform="translate(365,693)" d="m0 0 2 1v2l4 2 4 4 1 6-1 3h2l3 12-7-4-3-1 3-3h3v-3l-4-2v-3h-2l-2-4h3l-2-3-3 1z" fill="#E5E2E0"/>
<path transform="translate(536,691)" d="m0 0 1 2-1 10-1 2-6 1 1 11-4 8-1-2v-3l-3-3v-3h3l3-11 3-3h4v-8z" fill="#E5E2E0"/>
<path transform="translate(539,684)" d="m0 0 7 1 7 6 3 1v5l-2 2 3 7 5 2-3 1-5-3-1-5h-2l-2-8h2v-2h-2v-2l-4-2h-3l-2 6h-3v-2h2l-2-5z" fill="#F42D38"/>
<path transform="translate(697,916)" d="m0 0 3 1v3l5 1v-2h2v-2l5-1h5v4l-3 3-5 2-3 2-3-1v-3h-3l-3-5z" fill="#F42D38"/>
<path transform="translate(205,758)" d="m0 0h2l1 9 1 4-2 5 8 1-1 7-5-4-4-2 1-9-6-4v-2z" fill="#3879A4"/>
<path transform="translate(871,621)" d="m0 0 5 1 3 3h-3l-2 4-6 2-4-3v-2l-4-2z" fill="#F42D38"/>
<path transform="translate(732,885)" d="m0 0 2 1-5 5v-2h-2v5l4-1-1 3h-2l-2 4-4-1v6l1 1v5l-2-4-1-1v-10l6-8z" fill="#F42D38"/>
<path transform="translate(521,900)" d="m0 0 1 2-3 6-4 2v-2h-3l1 3-2 3h2l-1 4-3 1 1 6-1 2h-2v5l-3 3v-7l2-4-1-3 4-9 2-5 7-1z" fill="#E5E2E0"/>
<path transform="translate(835,720)" d="m0 0 2 1v2l3 1v5l-4 6h2l3 1-1 3-4 1-1 3-4-1h2v-7l2-5-1-1v-8z" fill="#E5E2E0"/>
<path transform="translate(1110,883)" d="m0 0 3 1 2 5-1 10-2 5-5 4-1-4v-9l6 1v-4h2l-4-6z" fill="#3175A2"/>
<path transform="translate(789,724)" d="m0 0 3 1v2l6 2 2 6 5 2 11 2 3 2-12-1-4-1v-2l-4-1-3-5-7 1-2-2-6-1 3-2h4z" fill="#F42D38"/>
<path transform="translate(563,730)" d="m0 0 2 3v2h9l2 3 2 8v6h-1l-2-6-5-5-5-2-2-3z" fill="#F42D38"/>
<path transform="translate(653,865)" d="m0 0 7 1 2 4-8-4v6h-2l-2 7-3 3-1 4-7 4-3-1 5-3h2v-5l4-2 2-7 2-4z" fill="#F42D38"/>
<path transform="translate(655,702)" d="m0 0h8v5l2 3 6 3 2 6 2 4v3l5 1 1 3h2l1 4-4-1-2-4-5-1-4-14-6-3-2-3v-4h-5z" fill="#E5E2E0"/>
<path transform="translate(844,667)" d="m0 0h1l1 17 1 6-4 6-4 3-1-2v-6l4-1 1-11z" fill="#E5E2E0"/>
<path transform="translate(781,715)" d="m0 0 4 3 5 1 7 8-3 1-5-4-1 4h-7l1-3 3 1-4-9z" fill="#E5D9D7"/>
<path transform="translate(384,742)" d="m0 0 2 2 7 1 4 7v3l2 1-2 2h-3v-5l-3-2-1 2-4-2z" fill="#F42D38"/>
<path transform="translate(1309,293)" d="m0 0 7 2 2-1 2 5-4-1v2l3 2-8-1-5-1-2-6z" fill="#286A94"/>
<path transform="translate(542,857)" d="m0 0 12 1 1 7v3l-3-5 1-4-7 2-1 4-5 2v7h-2l-1 5h-1l1-13 5-2z" fill="#E5E2E0"/>
<path transform="translate(754,685)" d="m0 0 5 1-1 10 4 2 6 2-1 2-9-3-3-6-2 2h-2l1-8z" fill="#F22A35"/>
<path transform="translate(1100,916)" d="m0 0h1l1 7 1 4-6 2-1 8-5-1v-2h3l-2-5 3-5h4z" fill="#2D72A0"/>
<path transform="translate(721,741)" d="m0 0h2v9l-3 5-5 8h-2v3h-5l-2-4 1-5 4 3h3l4-6 3-5z" fill="#F42D38"/>
<path transform="translate(541,856)" d="m0 0h9l4 2h-11v6l-5 2v6l-3 8-3-1 2-2v-10l1-3h5v-7z" fill="#F42D38"/>
<path transform="translate(651,696)" d="m0 0 2 2 3 5 5 1 3 7 6 3 1 6h-2v-5l-7-1-3-5-3-1-5-6z" fill="#F32C37"/>
<path transform="translate(283,759)" d="m0 0 2 2v4l3 1v2l3 5 2 7 1 4-1-2-5-1 2-6-3-1v-2h-2l1-4-3 1-1-1z" fill="#F42D38"/>
<path transform="translate(734,885)" d="m0 0v3l-3 9-4 4h-2l-1 10h-1l-2-9 1-3 5-1 4-5-4 1v-5h4z" fill="#E5E2E0"/>
<path transform="translate(347,728)" d="m0 0 1 2-1 10 4 1-2 7-1 5-4 2-3-5 6-2v-2h-2v-2h4l-4-5v-8z" fill="#F42D38"/>
<path transform="translate(422,877)" d="m0 0h1v8l-1 3-2 9-3 1-1 3-1-2 1-7 2-1 2-5h-2l1-3h2l-1-4z" fill="#F42D38"/>
<path transform="translate(671,720)" d="m0 0 2 3v5h5l3 5 3 2h-8l-3-1-3-4z" fill="#F32B36"/>
<path transform="translate(463,904)" d="m0 0 10 1 4 3 1 7-7-1-2-7-6-1z" fill="#F3323D"/>
<path transform="translate(1705,550)" d="m0 0 5 1 3 3-2 1-1 3h-7l-2-1v-2l-3-1h4l1-3z" fill="#427FA8"/>
<path transform="translate(778,863)" d="m0 0 3 2 1 4-4 4 7 6 1 3-2 4-2-7-8-5 1-5z" fill="#F42D38"/>
<path transform="translate(624,731)" d="m0 0h5l-4 2v8l-2 5-4 4v-11z" fill="#E5E2E0"/>
<path transform="translate(803,898)" d="m0 0 2 1-2 10-11 5-3-1 2-9 1 4 6 1 3-2z" fill="#F42D38"/>
<path transform="translate(1118,950)" d="m0 0 10 5 1 4 6-1 10 1v1l-17 1-4 1 1-6-7-4z" fill="#2E73A1"/>
<path transform="translate(1133,923)" d="m0 0 5 1v3l-1 4-2 1v4l-9-2v-1h6v-9z" fill="#3A7AA5"/>
<path transform="translate(557,871)" d="m0 0 2 3 5 5 1 7-9-3 1-7z" fill="#E7E4E2"/>
<path transform="translate(1121,782)" d="m0 0h1l1 7 3 1-1 6 3 4-2 4h-2l-1 7h-1v-8l2-5-2-2-1-6z" fill="#2E73A1"/>
<path transform="translate(770,704)" d="m0 0 7 6 4 5-1 2-3-3h-7v-3h-2v-2h2z" fill="#F32C37"/>
<path transform="translate(289,675)" d="m0 0 2 3 1 5h-2v8l2 5v5l-2-4-2-5-1-8h-3v-4h5z" fill="#F1414B"/>
<path transform="translate(493,928)" d="m0 0h2l4 7 2 2-2 1-1 3h-2l-1-4v-2h-5l-1-5-2-1 4 1 2 1z" fill="#E5E2E0"/>
<path transform="translate(764,840)" d="m0 0 2 1-2 2h-2l-3 5-2 5-1 4v5l-3-1h2l-1-3-2-1 2-5h2l-2-8h5l2-3z" fill="#E5E2E0"/>
<path transform="translate(895,681)" d="m0 0 5 4 1 3v5 3h-2l-1-2h-5l2-6h2l-2-4z" fill="#F42D38"/>
<path transform="translate(609,925)" d="m0 0 4 1h-3v8l-9 1-5-1v-1l6-2 2-2 3 1v-4z" fill="#E5E2E0"/>
<path transform="translate(565,728)" d="m0 0 1 3 9 3 3 7 2 12-2-1-4-16-9-1-1-5z" fill="#E5E2E0"/>
<path transform="translate(840,724)" d="m0 0 2 4-1 3 1 8-6 5h-6v-1l5-1 1-4h4v-2l-5 1 2-6 2-2z" fill="#F42D38"/>
<path transform="translate(269,719)" d="m0 0 2 3h4l1 7-2 3v-3l-5 1-1-1z" fill="#F42D38"/>
<path transform="translate(642,690)" d="m0 0h6l1 2h-5v5l-3 3h-3l-2 5-1 7h-1v-8l3-6 3-2z" fill="#E5E2E0"/>
<path transform="translate(350,702)" d="m0 0 2 1v9l-2 4v7l-7-4v-2l6-4 1-3z" fill="#F42D38"/>
<path transform="translate(482,752)" d="m0 0 5 4 5 5-2 2 5 3-4 1-4-1 1-5h-2l-4-6z" fill="#F42D38"/>
<path transform="translate(897,653)" d="m0 0 4 1-1 11-1 2h5l-3 5-5 1v-6l2-5 2-7-3-1z" fill="#F3303B"/>
<path transform="translate(634,890)" d="m0 0h2v3l4 1-3 1-1 5-3 1h-4l-2 6-1-3 2-5 4-2z" fill="#F42D38"/>
<path transform="translate(816,888)" d="m0 0h4v5l-2 2-5 2-2 2-6-1v-1l7-2 2-5z" fill="#F32C37"/>
<path transform="translate(1120,841)" d="m0 0 2 3-2 8v7l-4-2-1-5v-3l4-4z" fill="#2E73A1"/>
<path transform="translate(311,756)" d="m0 0 2 4 9 1-1 4h-2v5l1 2-3-1-1-5 1-1-5-3-1-1z" fill="#F42D38"/>
<path transform="translate(422,751)" d="m0 0 1 4-1 4-5 1-6-1 1-3 5-2 3 1z" fill="#F42D38"/>
<path transform="translate(603,924)" d="m0 0h10l-4 2h-2l1 6-4-2-3 3h-5l4-1 1-5z" fill="#F42D38"/>
<path transform="translate(161,887)" d="m0 0h6l3 3v3h-11l-1-4 3-1z" fill="#39769D"/>
<path transform="translate(623,745)" d="m0 0v3l-5 6-2 4-1 5h-3l-1 3-1-2 2-6 9-11z" fill="#F42D38"/>
<path transform="translate(581,912)" d="m0 0h4v2l4 1 1 2v9l-2-1v-9l-2 1 1 3-5-1z" fill="#F3303B"/>
<path transform="translate(313,750)" d="m0 0h1v9h7l3 3-2 4h-2v2l2 1-1 2 2 1-4-1-1-4 3-3 1-3h-9l-1-5z" fill="#E5E2E0"/>
<path transform="translate(284,660)" d="m0 0 2 2 1 10 2 3-4-1-3-1-1-4 2-2-1-4h2z" fill="#F42D38"/>
<path transform="translate(1091,838)" d="m0 0 1 3 1 8-3 1v10h-1l-1-7h-2l-1-3 4-2h3l-4-9z" fill="#2E73A1"/>
<path transform="translate(753,684)" d="m0 0h7l1 3-1 6 3 1v4l6 1v3l-8-4-3-2v-10l-6 1z" fill="#E5E2E0"/>
<path transform="translate(520,892)" d="m0 0 4 2v4h-2l-2 5-2 3-1-8 1-4z" fill="#F3303B"/>
<path transform="translate(350,885)" d="m0 0h7l2 3v3h2l1 6-3 1-3-3 1-8-5 1z" fill="#F42D38"/>
<path transform="translate(468,734)" d="m0 0 3 3 3 1-1 7h7l2 3-1 4-3-5h-6l-1-1v-5l-3-1z" fill="#F22B36"/>
<path transform="translate(344,731)" d="m0 0h1l1 10 3 1v2h-4v2h2v2l-6 2 1-8 1-1z" fill="#E5E2E0"/>
<path transform="translate(380,904)" d="m0 0 5 5 2 5 8 5-1 2-9-6-4-7-6-1-4-2h8z" fill="#F42D38"/>
<path transform="translate(615,752)" d="m0 0 2 1-5 6-1 5-3 3h-9l-2-2 1-3 2 3h9l-1-6z" fill="#E5E2E0"/>
<path transform="translate(889,722)" d="m0 0h1l1 7 1 3-2 8-1-3h-2l-1-6h2z" fill="#F42D38"/>
<path transform="translate(536,693)" d="m0 0h1v12l-1 2-3 1-2 9-2-3v-8l4-2 2 1z" fill="#F42D38"/>
<path transform="translate(1156,893)" d="m0 0h1l1 7 2 1-1 7-7 5h-2l1-3 6-3 1-5-4-2 1-4z" fill="#2E73A1"/>
<path transform="translate(752,853)" d="m0 0 1 2-1 2 3 1v3l-7 3-2 1 3-9z" fill="#F42D38"/>
<path transform="translate(296,705)" d="m0 0 3 3 1 10-5 1 2-5v-4l-3 1-3-4 4-1z" fill="#F42D38"/>
<path transform="translate(207,771)" d="m0 0 1 2-1 3 8 1-1 7-5-4-4-2 1-6z" fill="#2E73A1"/>
<path transform="translate(888,740)" d="m0 0h1l1 8 1 2-1 2-4 1-1 8-3 2 1-9 3-4z" fill="#F42D38"/>
<path transform="translate(586,756)" d="m0 0 11 6 2 5-6-3-3 1-3-5z" fill="#F42D38"/>
<path transform="translate(893,637)" d="m0 0 7 1-1 6-5 6-2-1 1-3h3v-4l-2-1 1-2h-2z" fill="#F42D38"/>
<path transform="translate(763,837)" d="m0 0 4 1 3 5 3 2 2 5-1 4-2-5v-3l-6-1-2-5z" fill="#F42D38"/>
<path transform="translate(273,734)" d="m0 0 6 12 3 3v4l-3-1v-2l-4-3v-5l-3-3z" fill="#F42D38"/>
<path transform="translate(892,694)" d="m0 0 3 4 2 10-3 2h-3l1-9h2v-2h-2z" fill="#F42D38"/>
<path transform="translate(798,729)" d="m0 0 5 4 4-1 1 2h-3l1 2 3 1 1-2 6 3-3 1-8-1-5-3z" fill="#E5E2E0"/>
<path transform="translate(436,699)" d="m0 0 2 1-2 4-3 2 1 5v5l1 2-4 1-3 2 2-5 1-1v-10l3-3h2z" fill="#E5E2E0"/>
<path transform="translate(841,706)" d="m0 0 4 2v5l-4 5-2-7z" fill="#F03B44"/>
<path transform="translate(579,912)" d="m0 0h2l2 4v3h3l-1-3h3l1 3v6l1 2-3-1v-4l-6-1z" fill="#E5E2E0"/>
<path transform="translate(59,882)" d="m0 0h3l2 9-5-1-2-2 1-5z" fill="#226690"/>
<path transform="translate(259,871)" d="m0 0 7 2 2 13-5 1 2-5-2-7z" fill="#3174A1"/>
<path transform="translate(331,858)" d="m0 0 3 1 2 5-1 5-7-6z" fill="#F42D38"/>
<path transform="translate(744,707)" d="m0 0 1 3-3 4-3 10h-1v-13z" fill="#F42D38"/>
<path transform="translate(847,687)" d="m0 0 1 4-3 6-4 3-2 5 2 1-4-1 2-6 6-7z" fill="#F42D38"/>
<path transform="translate(1183,909)" d="m0 0 2 4 1 3-1 2-6 1v-6l4-2z" fill="#4A84AA"/>
<path transform="translate(105,467)" d="m0 0h3l2 6 1 4-3 1-2-2-2-6z" fill="#E5E2E0"/>
<path transform="translate(674,883)" d="m0 0 2 1 6 16-1 3-4-6-3-11z" fill="#F42D38"/>
<path transform="translate(771,856)" d="m0 0h1l1 5 5 2-1 5-3 2 1-6-5-1z" fill="#E5E2E0"/>
<path transform="translate(1071,912)" d="m0 0 2 3-1 5h-2l-1 3-4-3h2l-1-5 5 1z" fill="#2E73A1"/>
<path transform="translate(641,888)" d="m0 0 2 1-2 2 1 5-5 2v-3l2-1-3-1v-3z" fill="#E5E2E0"/>
<path transform="translate(1093,753)" d="m0 0 2 2-1 5-4 3-1-6z" fill="#2E73A1"/>
<path transform="translate(845,667)" d="m0 0h1l1 13h2v5h-2l-1 2-1-3z" fill="#F42D38"/>
<path transform="translate(1125,934)" d="m0 0 1 3-1 7-6 4-2 2v-5l5-1 2-9z" fill="#2E73A1"/>
<path transform="translate(232,836)" d="m0 0h6l2 1v6l3 3 2 4-4-2-3-4 1-6h-6z" fill="#2E73A1"/>
<path transform="translate(720,741)" d="m0 0 2 4-1 5-3 5-3 3 1-4 3-8z" fill="#E5E2E0"/>
<path transform="translate(849,641)" d="m0 0h1l2 8-2 6-3-2v-6z" fill="#F42D38"/>
<path transform="translate(1314,294)" d="m0 0h3l3 3-1 2-3-1v2l3 2-8-1v-4h3z" fill="#4A82A7"/>
<path transform="translate(1075,948)" d="m0 0 2 1v3h4l-2 5-6-1 1-6z" fill="#2E73A1"/>
<path transform="translate(869,812)" d="m0 0 1 2-4 12-5 3v-2l4-4h-3v-2l4-1z" fill="#F42D38"/>
<path transform="translate(1085,881)" d="m0 0v3l-1 11-6-4 3-3 2-5z" fill="#2E73A1"/>
<path transform="translate(683,906)" d="m0 0h2l2 3 5-1 2 6h-6v-2h-2z" fill="#E5E2E0"/>
<path transform="translate(1191,877)" d="m0 0 4 4 1 4-1 6-2-3-2-6z" fill="#2E73A1"/>
<path transform="translate(663,870)" d="m0 0 6 1 4 4 1 8-3-1v-6l-3-3-5-2z" fill="#F42D38"/>
<path transform="translate(843,854)" d="m0 0 4 1 2 2-2 3-6 2z" fill="#F3323D"/>
<path transform="translate(765,843)" d="m0 0 1 2 6 1 2 5-1 3-4-5-2 1-2-3z" fill="#E5E2E0"/>
<path transform="translate(487,756)" d="m0 0 4 1 4 2v7l-6-3 2-3z" fill="#E5E2E0"/>
<path transform="translate(738,709)" d="m0 0 3 1-3 1 1 8-2 6-2-1 1-3 1-6-1-4z" fill="#E5E2E0"/>
<path transform="translate(1719,620)" d="m0 0h1l2 6 2 3-3 1 1 4-4-2v-5l1-1z" fill="#447FA7"/>
<path transform="translate(1117,865)" d="m0 0h1l1 9-2 5-2-2v-6z" fill="#2E73A1"/>
<path transform="translate(71,892)" d="m0 0h10l-4 2-3 3-3-1v-2l-2-1z" fill="#3D799F"/>
<path transform="translate(109,889)" d="m0 0h10l-3 6-2-1 1-2-5-1v2h-2l-1-3z" fill="#3A7AA5"/>
<path transform="translate(1689,858)" d="m0 0 6 1-1 2h-4l-1 3-5-1-1-2 6-1z" fill="#32739C"/>
<path transform="translate(308,821)" d="m0 0h1l3 10 5 2-3 1-1 2-4-6-2-4z" fill="#F42D38"/>
<path transform="translate(460,718)" d="m0 0 6 1 1 9v5l-2-1v-8l-2-4h-3z" fill="#F42D38"/>
<path transform="translate(1705,550)" d="m0 0 5 1-1 4-6-1v-3z" fill="#14587E"/>
<path transform="translate(773,854)" d="m0 0 2 2 1 3 2 1-1 3-5-2z" fill="#F42D38"/>
<path transform="translate(625,732)" d="m0 0 4 1h-3l1 9-1 3h-2v-12z" fill="#F42D38"/>
<path transform="translate(1242,301)" d="m0 0h2v2l5 1-1 3-4 1-2-4z" fill="#2E6E96"/>
<path transform="translate(307,738)" d="m0 0 2 3 1 5-7 1 1-3 2 1z" fill="#F42D38"/>
<path transform="translate(662,709)" d="m0 0 4 3 4 2 1 6h-2v-5l-7-1-1-4z" fill="#F42D38"/>
<path transform="translate(441,682)" d="m0 0h1v5l-2 1v6h-3l-1-7 5-2z" fill="#E5E2E0"/>
<path transform="translate(1650,575)" d="m0 0 3 1-1 4-5 4-2 2v-4l3-3h2z" fill="#3A7599"/>
<path transform="translate(1243,1065)" d="m0 0 3 1v2l-4 3h-2l1-4z" fill="#E6E3E1"/>
<path transform="translate(1041,1106)" d="m0 0 4 2-1 2h-4z" fill="#E5E2E0"/>
<path transform="translate(1256,1062)" d="m0 0h3l-1 3h-3z" fill="#E5E2E0"/>
<path transform="translate(979,1107)" d="m0 0 1 3-2 4-1-2z" fill="#E5E2E0"/>
<path transform="translate(315,926)" d="m0 0 4 5-4-2z" fill="#EDEBEA"/>
<path transform="translate(1977,831)" d="m0 0h2l2 4-4-1z" fill="#BCC9D2"/>
<path transform="translate(1427,987)" d="m0 0 2 2-4 2z" fill="#E8E5E3"/>
<path transform="translate(1571,904)" d="m0 0h2v4h-2z" fill="#E8E5E3"/>
<path transform="translate(203,889)" d="m0 0 3 3-3 1z" fill="#226894"/>
<path transform="translate(1871,868)" d="m0 0 3 3-1 2-3-4z" fill="#A0B8C8"/>
<path transform="translate(729,304)" d="m0 0 3 2v2l-3-1z" fill="#5B8EB0"/>
<path transform="translate(303,46)" d="m0 0 3 3h-3z" fill="#A0B8C8"/>
<path transform="translate(1308,418)" d="m0 0 3 3-4-1z" fill="#417CA2"/>
<path transform="translate(1989,856)" d="m0 0 2 1-1 3z" fill="#C6CFD5"/>
<path transform="translate(1335,316)" d="m0 0h3v2l-4-1z" fill="#89AAC0"/>
<path transform="translate(109,116)" d="m0 0 1 4-2 1z" fill="#E5E2E0"/>
<path transform="translate(997,1110)" d="m0 0h2l-1 3z" fill="#EAE7E6"/>
<path transform="translate(283,896)" d="m0 0 3 1-3 1z" fill="#EAE7E6"/>
<path transform="translate(1750,859)" d="m0 0 1 3h-2z" fill="#2E73A1"/>
<path transform="translate(1964,605)" d="m0 0 1 2-2 2z" fill="#C0CBD3"/>
<path transform="translate(1632,588)" d="m0 0h2l-1 3z" fill="#779FBA"/>
<path transform="translate(112,509)" d="m0 0 3 1-3 1z" fill="#C0CBD3"/>
<path transform="translate(1299,465)" d="m0 0 1 3h-2z" fill="#2E73A1"/>
<path transform="translate(1987,460)" d="m0 0 3 1-3 1z" fill="#C0CBD3"/>
<path transform="translate(729,302)" d="m0 0 4 2-4-1z" fill="#E5E2E0"/>
<path transform="translate(564,1075)" d="m0 0 3 1h-3z" fill="#E5E2E0"/>
<path transform="translate(1745,863)" d="m0 0 2 1h-3z" fill="#5B8EB0"/>
<path transform="translate(1937,689)" d="m0 0v3z" fill="#E5E2E0"/>
<path transform="translate(1939,686)" d="m0 0v3z" fill="#89AAC0"/>
<path transform="translate(123,542)" d="m0 0v3z" fill="#E5E2E0"/>
<path transform="translate(1324,369)" d="m0 0 2 1-1 2z" fill="#5B8EB0"/>
<path transform="translate(895,1119)" d="m0 0 1 2-2-1z" fill="#E5E2E0"/>
<path transform="translate(639,1093)" d="m0 0 1 2-2-1z" fill="#E5E2E0"/>
<path transform="translate(575,1078)" d="m0 0h2l-1 2z" fill="#E5E2E0"/>
<path transform="translate(494,1051)" d="m0 0 1 2-2-1z" fill="#E5E2E0"/>
<path transform="translate(382,988)" d="m0 0 2 2h-2z" fill="#F5F4F4"/>
<path transform="translate(1634,871)" d="m0 0h2l-1 2z" fill="#E5E2E0"/>
<path transform="translate(65,869)" d="m0 0 3 1z" fill="#6B98B6"/>
<path transform="translate(1699,863)" d="m0 0" fill="#A8BDCB"/>
<path transform="translate(1913,522)" d="m0 0 2 2h-2z" fill="#E5E2E0"/>
<path transform="translate(727,300)" d="m0 0 2 2h-2z" fill="#6B98B6"/>
<path transform="translate(1275,294)" d="m0 0 2 2h-2z" fill="#6B98B6"/>
<path transform="translate(201,36)" d="m0 0h2l-1 2z" fill="#E5E2E0"/>
<path transform="translate(890,1120)" d="m0 0 2 1z" fill="#E5E2E0"/>
<path transform="translate(1404,998)" d="m0 0" fill="#F1F0EF"/>
<path transform="translate(357,967)" d="m0 0" fill="#E5E2E0"/>
<path transform="translate(1985,892)" d="m0 0 2 1z" fill="#89AAC0"/>
<path transform="translate(232,892)" d="m0 0 2 1z" fill="#89AAC0"/>
<path transform="translate(1637,869)" d="m0 0" fill="#89AAC0"/>
<path transform="translate(1748,863)" d="m0 0" fill="#2E73A1"/>
<path transform="translate(1677,862)" d="m0 0 2 1z" fill="#89AAC0"/>
<path transform="translate(1930,723)" d="m0 0" fill="#89AAC0"/>
<path transform="translate(148,633)" d="m0 0" fill="#FEFEFE"/>
<path transform="translate(1807,612)" d="m0 0" fill="#E5E2E0"/>
<path transform="translate(140,605)" d="m0 0 2 1z" fill="#E5E2E0"/>
<path transform="translate(1497,600)" d="m0 0 2 1z" fill="#E5E2E0"/>
<path transform="translate(1027,439)" d="m0 0" fill="#89AAC0"/>
<path transform="translate(97,437)" d="m0 0 2 1z" fill="#E5E2E0"/>
<path transform="translate(739,307)" d="m0 0" fill="#E5E2E0"/>
<path transform="translate(894,1117)" d="m0 0" fill="#E5E2E0"/>
<path transform="translate(812,1115)" d="m0 0" fill="#E5E2E0"/>
<path transform="translate(607,1088)" d="m0 0" fill="#FEFEFE"/>
<path transform="translate(604,1087)" d="m0 0" fill="#E5E2E0"/>
<path transform="translate(567,1073)" d="m0 0" fill="#E5E2E0"/>
<path transform="translate(1256,1060)" d="m0 0" fill="#E5E2E0"/>
<path transform="translate(511,1058)" d="m0 0" fill="#E5E2E0"/>
<path transform="translate(1297,1048)" d="m0 0" fill="#FEFEFE"/>
<path transform="translate(1423,987)" d="m0 0" fill="#E5E2E0"/>
<path transform="translate(325,938)" d="m0 0" fill="#E5E2E0"/>
<path transform="translate(131,895)" d="m0 0" fill="#2E73A1"/>
<path transform="translate(1604,889)" d="m0 0" fill="#FEFEFE"/>
<path transform="translate(1605,888)" d="m0 0" fill="#FEFEFE"/>
<path transform="translate(1880,874)" d="m0 0" fill="#E5E2E0"/>
<path transform="translate(1743,865)" d="m0 0" fill="#E5E2E0"/>
<path transform="translate(104,834)" d="m0 0" fill="#2E73A1"/>
<path transform="translate(103,833)" d="m0 0" fill="#2E73A1"/>
<path transform="translate(115,825)" d="m0 0" fill="#2E73A1"/>
<path transform="translate(184,723)" d="m0 0" fill="#E5E2E0"/>
<path transform="translate(168,689)" d="m0 0" fill="#E5E2E0"/>
<path transform="translate(156,665)" d="m0 0" fill="#E5E2E0"/>
<path transform="translate(149,632)" d="m0 0" fill="#FEFEFE"/>
<path transform="translate(1635,587)" d="m0 0" fill="#2E73A1"/>
<path transform="translate(1357,543)" d="m0 0" fill="#E5E2E0"/>
<path transform="translate(1356,542)" d="m0 0" fill="#E5E2E0"/>
<path transform="translate(1348,541)" d="m0 0" fill="#E5E2E0"/>
<path transform="translate(109,484)" d="m0 0" fill="#E5E2E0"/>
<path transform="translate(1298,476)" d="m0 0" fill="#E5E2E0"/>
<path transform="translate(1297,470)" d="m0 0" fill="#E5E2E0"/>
<path transform="translate(1099,375)" d="m0 0" fill="#E5E2E0"/>
<path transform="translate(1327,355)" d="m0 0" fill="#E5E2E0"/>
<path transform="translate(1336,326)" d="m0 0" fill="#2E73A1"/>
<path transform="translate(741,310)" d="m0 0" fill="#2E73A1"/>
<path transform="translate(740,309)" d="m0 0" fill="#E5E2E0"/>
<path transform="translate(1238,303)" d="m0 0" fill="#E5E2E0"/>
<path transform="translate(630,230)" d="m0 0" fill="#E5E2E0"/>
<path transform="translate(629,229)" d="m0 0" fill="#E5E2E0"/>
<path transform="translate(517,143)" d="m0 0" fill="#E5E2E0"/>
<path transform="translate(356,63)" d="m0 0" fill="#E5E2E0"/>
<path transform="translate(202,34)" d="m0 0" fill="#E5E2E0"/>
</svg>
